<svg id="Layer_1" xmlns="http://www.w3.org/2000/svg" xmlns:xlink="http://www.w3.org/1999/xlink" viewBox="0 0 503.6 503.6"><style>.st0{fill:#fff}.st1{fill:#00818f}</style><path class="st0" d="M1.8 431.5c0 38.8 31.4 70.3 70.2 70.3h359.5c38.8 0 70.3-31.4 70.3-70.3V72.1c0-38.8-31.5-70.3-70.3-70.3H72.1C33.3 1.8 1.8 33.2 1.8 72.1v359.4z"/><path class="st1" d="M431.5 503.6H72c-39.7 0-72-32.3-72-72.1V72.1C0 32.3 32.3 0 72.1 0h359.4c39.8 0 72.1 32.3 72.1 72.1v359.4c0 39.8-32.3 72.1-72.1 72.1zM72.1 3.6C34.3 3.6 3.6 34.3 3.6 72.1v359.4C3.6 469.3 34.3 500 72 500h359.5c37.8 0 68.5-30.7 68.5-68.5V72.1c0-37.8-30.7-68.5-68.5-68.5H72.1z"/><path class="st1" d="M80.2 25.2h343.3c30.3 0 54.9 24.6 54.9 54.9v343.3c0 30.3-24.6 54.9-54.9 54.9H80.2c-30.3 0-54.9-24.6-54.9-54.9V80.2c-.1-30.4 24.5-55 54.9-55z"/><path class="st0" d="M259 144.1c15.9 0 28.8-13.9 28.8-31S274.9 82.2 259 82.2s-28.8 13.9-28.8 30.9 12.9 31 28.8 31"/><path class="st0" d="M299.4 193.3l98.4-102.1-.6-.9c-9.4-9.4-32.6-4.5-40.8 3.6l-58.8 58.8-173.1-.1c-15.2 0-29.7 13.9-29.7 27.4h123.6l.5 74.3H299m-62.7 72.9c0-14.4 9.6-26.1 21.5-26.1s21.5 11.7 21.5 26.1-9.6 26.2-21.5 26.2-21.5-11.8-21.5-26.2"/><g><defs><path id="SVGID_1_" d="M258 252.6c-69.8 0-150.4-24.8-150.4-24.8-2.8 4.2-67 126-69.4 129.4 129.5 85.7 297.8 85.6 427.1-.4-3.3-4.8-70-116.1-72.8-120.2.1 0-64.5 15.9-134.5 16"/></defs><clipPath id="SVGID_2_"><use xlink:href="#SVGID_1_" overflow="visible"/></clipPath><g clip-path="url(#SVGID_2_)"><path class="st0" d="M365.6 305.9c0-14.4 9.6-26.2 21.5-26.2s21.5 11.7 21.5 26.2-9.6 26.2-21.5 26.2-21.5-11.7-21.5-26.2m-258.7 0c0-14.4 9.7-26.2 21.5-26.2s21.5 11.7 21.5 26.2-9.6 26.2-21.5 26.2-21.5-11.7-21.5-26.2m247 108.5v-44.1h4.9v44.1h55.1v-43.3h5v43.3h21.9v-40.8c0-19.3-15.7-35-35-35H368c-19.3 0-35 15.6-35.1 34.9v40.9m-108.4 21.3v-44.1h4.9v44.1h55.2v-43.3h5v43.3h21.9v-40.8c0-19.3-15.7-35-35-35h-37.9c-19.3 0-35 15.6-35.1 34.9v40.9M95.2 414.4v-44.1h4.9v44.1h55.1v-43.3h5v43.3h21.9v-40.8c0-19.3-15.7-35-35-35h-37.8c-19.3 0-35 15.7-35 35v40.8"/></g></g></svg>