<svg id="Layer_1" xmlns="http://www.w3.org/2000/svg" viewBox="0 0 503.6 503.6"><style>.st1{fill:#00818f}</style><path d="M1.8 431.5c0 38.8 31.4 70.3 70.2 70.3h359.5c38.8 0 70.3-31.4 70.3-70.3V72.1c0-38.8-31.5-70.3-70.3-70.3H72.1C33.3 1.8 1.8 33.2 1.8 72.1v359.4z" fill="#fff"/><path class="st1" d="M431.5 503.6H72c-39.7 0-72-32.3-72-72.1V72.1C0 32.3 32.3 0 72.1 0h359.4c39.8 0 72.1 32.3 72.1 72.1v359.4c0 39.8-32.3 72.1-72.1 72.1zM72.1 3.6C34.3 3.6 3.6 34.3 3.6 72.1v359.4C3.6 469.3 34.3 500 72 500h359.5c37.8 0 68.5-30.7 68.5-68.5V72.1c0-37.8-30.7-68.5-68.5-68.5H72.1z"/><path class="st1" d="M25.2 431.5c0 25.9 20.9 46.8 46.8 46.9h359.5c25.9 0 46.9-21 46.9-46.8V72.1c0-25.9-21-46.9-46.9-46.9H72.1c-25.9 0-46.9 21-46.9 46.8v359.5zM230.4 69.4c.2.3-9.8 51.4-12.6 57.3-5.2 10.6-13.7 17-25.7 19.1-4 9-30 142.2-29.9 142.4.5 2.8 2 5.3 4.2 7 1.2 1 6.6 2.5 16 4.6l8.2 1.8c5.2 1.1 9.5 4.3 12.7 9.7 1.9 3.1 2.9 5.4 3.2 7 .3 1.8-13.1 65.6-13.9 68.3-14.4-9.7-37.8-7-51.7 5.5-10.9-3.5-18.7-5.1-23.3-4.7-8.4.7-18.6 5-30.5 12.8-12.4 8.1-20 12.1-22.8 12 .6-8.1 7.3-41.2 20-99.1 4-18.2 8-30.9 33.4-26.5 8.5 1.5 14.1 2.3 16.7 2.3 2.4-1.6 4.5-3.7 5.9-6.2 1.6-3 29.8-139.5 28.8-140.4l-8-7.1c-8.5-7.6-11-20.3-7.4-38 4.8-23.9 8-37.8 9.5-41.6l67.2 13.8zm-46.6 58.3c14 2.6 21.8-11.6 23.3-42.8-9.8-3.1-19.8-5.1-30-6.1-6 21.9-7.6 35.4-4.8 40.4 2.3 4.5 6.6 7.7 11.5 8.5zm32.8 77.8h222.1c3 0-2.1 65.8-64.4 94.6-45.6 21.1-106.3 8.1-138.1-38.4-12.8-18.5-19.3-37.2-19.6-56.2zm9.9 67.2l.6.3 5.7 6.5c18.4 21.1 42.9 34.7 73.6 40.9 40.9 8.2 90.1-5.3 119-43.2L396 448.3l-140-.5-29.5-175.1z"/></svg>