<svg id="Layer_1" xmlns="http://www.w3.org/2000/svg" viewBox="0 0 503.6 503.6"><style>.st0{fill:#fff}.st1{fill:#00818f}</style><path class="st0" d="M1.8 431.5c0 38.8 31.4 70.3 70.2 70.3h359.5c38.8 0 70.3-31.4 70.3-70.3V72.1c0-38.8-31.5-70.3-70.3-70.3H72.1C33.3 1.8 1.8 33.2 1.8 72.1v359.4z"/><path class="st1" d="M431.5 503.6H72c-39.7 0-72-32.3-72-72.1V72.1C0 32.3 32.3 0 72.1 0h359.4c39.8 0 72.1 32.3 72.1 72.1v359.4c0 39.8-32.3 72.1-72.1 72.1zM72.1 3.6C34.3 3.6 3.6 34.3 3.6 72.1v359.4C3.6 469.3 34.3 500 72 500h359.5c37.8 0 68.5-30.7 68.5-68.5V72.1c0-37.8-30.7-68.5-68.5-68.5H72.1z"/><path class="st1" d="M25.2 423.9c0 30.3 24.6 55 54.9 55h343.3c30.3 0 54.9-24.7 54.9-55V79.8c0-30.3-24.6-55-54.9-55H80.2c-30.3 0-54.9 24.7-54.9 55l-.1 344.1z"/><path class="st0" d="M207.6 256.3c-1.1 2.1-2.4 4.2-3.7 6.2-16.4 21.9-39.1 21.6-56.5-2.6-9.3-12.9-20.7-17-35-17.8-13.2-.7-26.1-2.6-37-11.6C65 222 59.1 203.1 63 190c4.3-14.6 15.3-22.8 30.7-24.7 8.4-1.1 16.5-3.9 24.7-6 10.7-2.7 21.2-6.5 32.1-8.1 18.8-2.9 33.3 5.7 40.8 22.9 2.7 6.4 4.4 13.2 6.6 19.7 3.4 9.5 6.3 19.2 10.4 28.4 6.1 13.4 6.5 20.5-.7 34.1M80.3 130.8c5-5 9.7-10.3 15.1-14.8 5.7-4.8 12.5-7.9 20.1-3.2 7.3 4.5 9.7 11.5 9.1 19.6-1 13.7-13.5 26-27.8 27.3-14.6 1.3-22.5-8.2-18.2-21.9.8-2 1.6-4 2.6-5.9l-.9-1.1m131.8 6.1c-5.5 4.8-10.3 10.7-16.6 14-9.7 5.1-20.5-1.2-22-12.2-1.9-14.1 4.7-24.8 15.1-33.2 5.8-4.6 12.8-3.2 18.7 1.2 6.7 4.9 8.6 11.7 7.1 19.3-.7 3.3-2.4 6.4-3.7 9.6.6.4 1 .8 1.4 1.3m-76.9-22.2c7-12.6 18-18.4 27.4-14 8.8 4.1 12 18 5.8 30.1-2.8 5.5-7.2 12.1-12.5 14-5.9 2.1-14.7 1-20.4-2.1-3.3-1.8-3.9-10.3-4-15.7-.1-4.1 2.4-8.1 3.7-12.3m65.1 41.9c3.9-5.2 6.3-8.3 8.6-11.6 4.1-5.8 10.3-8.7 16.3-5.2 4.5 2.6 8.9 8.6 9.8 13.7 2.6 14.1-2.9 25.9-15.1 33.2-4 2.4-11.1 3.7-14.9 1.8-3.6-1.8-6.6-8.4-6.9-13-.5-6.9 1.5-13.9 2.2-18.9m15.3 42.8c4.3-4.8 8.2-10.2 13.1-14.3 6-5 13.9-2.3 17.1 5.1 5.5 12.6 0 32.3-11.9 39-3.3 1.8-9.7 2.4-12.2.5-4.1-3.1-7.8-8.6-8.7-13.5-.9-5.2 1.6-10.9 2.6-16.8m.8-97.7c-7.2-2.7-12.4-4.5-19.6-7.1 10.5-10.1 20.8-20 31.1-29.9 1.2.8 2.3 1.6 3.5 2.4-5.1 11.6-10.2 23.4-15 34.6m-76.5-29.4c-5.8 11.5-11.6 22.9-17.4 34.5l-21.1-4.8c13-11.7 24.3-21.9 35.7-32.2l2.8 2.5m31.2 22.5c-7.1-.8-12.9-1.5-19.9-2.3 8.4-13.8 21.1-21.8 35.4-28.5-5.3 10.5-10.6 21-15.5 30.8m79.4.6c1.4 18-3.8 31-12.1 43.9-4.8-2.7-8.9-5.1-13.1-7.5 7.9-11.4 15.8-22.8 25.2-36.4m10.3 46.9c-2.1 13.5-4.3 27-6.6 41.7-6.4-2.8-10.6-4.7-14.8-6.6 6.1-12.1 12.1-23.9 18-35.7l3.4.6m96.4 67.8c-41.9 0-75.7 33.4-76.9 75.4v149.4c0 3.9 3.1 7 7 7h140.2c3.9 0 7-3.1 7-7V285.5c-1.1-41.9-35.4-75.4-77.3-75.4m16.1 206.2h-32l5.6-49.5c-7.1-5.7-8.3-16.1-2.6-23.3 5.7-7.1 16.1-8.3 23.3-2.6 7.1 5.7 8.3 16.1 2.6 23.3-.8 1-1.6 1.8-2.6 2.6l5.7 49.5zm37-130.8v26.2H304.5v-26.2c.1-29.4 24-53.2 52.9-53.2 29.3 0 52.9 23.8 52.9 53.2z"/></svg>