<svg id="Layer_1" xmlns="http://www.w3.org/2000/svg" viewBox="0 0 503.6 503.6"><style>.st1{fill:#00818f}</style><path d="M1.8 431.5c0 38.8 31.4 70.3 70.2 70.3h359.5c38.8 0 70.3-31.4 70.3-70.3V72.1c0-38.8-31.5-70.3-70.3-70.3H72.1C33.3 1.8 1.8 33.2 1.8 72.1v359.4z" fill="#fff"/><path class="st1" d="M431.5 503.6H72c-39.7 0-72-32.3-72-72.1V72.1C0 32.3 32.3 0 72.1 0h359.4c39.8 0 72.1 32.3 72.1 72.1v359.4c0 39.8-32.3 72.1-72.1 72.1zM72.1 3.6C34.3 3.6 3.6 34.3 3.6 72.1v359.4C3.6 469.3 34.3 500 72 500h359.5c37.8 0 68.5-30.7 68.5-68.5V72.1c0-37.8-30.7-68.5-68.5-68.5H72.1z"/><path class="st1" d="M25.2 431.5c0 25.9 20.9 46.8 46.7 46.9h359.5c25.9 0 46.9-21 46.9-46.8V72.1c0-25.9-21-46.9-46.9-46.9H72.1c-25.9 0-46.9 21-46.9 46.8v359.5zm180.1-78c-2.1-2.6-5.6-3.8-7.3 0-.3.7-.7 1.3-1.1 1.9-.6.9-.6 1.3-1.8 1.3h-4.3c-10.7-1.2-13.9-1.8-24.7 0h-1.4c-2.6 0-5.3-.1-7.9-.5-3.2-.6-6-2.3-8.1-4.8-3-3.7-7.9-14-10-22.5-1.4-5.7 1.1-11.9-1.1-17.1-.2-.5-.5-1.3-.9-2.4-2.2.3-4.3 1.1-6.1 2.4-6.5 5.1-14.2 8.9-21.1 13.6-3 2.1-14.4 11.4-7.2 13.8 1.6.5 2.8.6 4.2 1.1 3.3 1.4 13.1 8.6 12 12.8-.1.4-.3.7-.7.9-.7.3-1.4-.2-2-.9-1.4-1.6-3.1-4.1-5.8-2.2-.7.5-.8 1.5-1.2 2.2-.5.8-1.3 1.4-2.2 1.8h-.1c-1.5.4-7.1.1-12.1-.3-13.7-1.2-11.6-7.2-16.9-18.4-.1-.1-.1-.2-.1-.3-1.3-2.6-2.4-5.3-3.4-8.1-2.6-7.8 1.6-14 6.2-20 14.4-18.4 16.4-28.1 18-50 .1-3.2 0-6.5-.2-9.7.1-2 .4-4 .9-5.9 1.2-5.3 2.9-10.4 5.1-15.4.6-1.3 1.1-2.6 1.6-4 2.7-8.1 2.9-15.2 9.6-21.2.2-1.6.6-3.1 1.3-4.5l.7-1.2c4.6-8.4 23-18.7 31.5-24.1 5.2-3 10.5-5.7 16-8.1 2-.9 4-1.6 6.1-2.2 7.4-2.2 16.7-3.5 24.5-4.7 2-.3 4.1-.6 6.1-.8 12.8-1.2 17.5 1.9 29.2 5.2l.7.2c8.7 2.4 17.7 3.8 26.4 2.4 16.4-2.6 21.7-16.7 37.4-17.6 3-.2 6 .2 8.9 1 11.9 3.8 14 9.1 27.7 10.4 8.4.8 23-.7 29.8-5.6.3-.2.5-.4.8-.5 2.4-1.3 6.4-1.9 8.2.8.2.4-.2.7-.4 1.1-.5 3 .9 5.9 3.6 7.3 11.6 4.9 21.8 13.1 30 22.5 2.4 2.8 13.6 9.4 17.9 11.4 2.5.9 4.8 2.2 7 3.8.5.4.9.8 1.3 1.3.1 1 0 2.1 0 3.1-.7 6-7 20.7-13.7 20.7H413c-8.1 0-8.5 1.8-15.6 5.6-4.1 2.2-10.5 1.1-15 1.8-1.8.3-3.5.6-5.3 1-7.5 1.9-7.9.6-15.1 4.7-5.6 3.3-5.9 3.4-10.7 2.9-1.6-.1-10.4-1-12.2.4-.7.7.7 1.7-.9 4.2-1.2 1.9-1.7 25.4-1 31.8.1 3.4-.7 6.8-2.5 9.8-1.8 3.1-9.4-.1-7.9 9.4 1.8 10.5 2.6 18.6 8.9 27.4.2.2.3.5.5.8 2.1 5-3.5 17.5 8.5 18.5.8.1 1.2-.6 2.1-.6h1.7c6.1 0 20.3 6.9 19.5 14.5h-.4c-1.9 0-.6-.5-1.5-1.6-.8-.9-1.7-1.6-2.7-2.1-3.1-2-4.2-1.8-5.9 0-4.2 4.5-3.7 4-9.7 4h-2.2c-2.5 0-23.7-.8-24.5-1.2-1.3-.9-2.3-2-3.1-3.3-1.9-3.3-4-5.9-7.2-7.2-7.1-3.1-9.1-2.3-12-8.3-.8-1.7-1.7-3.9-2.7-6.2-3.8-9.1-5.4-10.3-11.3-17.6-.7-.8-1-1.7-1-2.8v-.2c-.2 0-.5.1-.7.2-2.9 1.6-2.7 10.7-3.9 14.5s-2.5 7-1.2 10c2.8 6.3 11.9 3.5 17.4 5.2 3 .9 5.6 3 7 5.8.6 1.5 1 3.1 1 4.8-.6.1-1.2.1-1.7 0-1.5-.5-2.1-3.6-4.5-2.3-1.1.6-1.2 2-2.6 2.4-4.4.8-8.9 1.1-13.4 1.1-1.4 0-2.8-.2-4.1-.5-2.2-.5-4.2 0-6.4.1-12.7.7-14-6.1-22.9-13.8-.5-.5-1.1-1-1.6-1.5-5.9-5.7-6.6-13.7-6.3-21.6s2.1-14.7 4.6-22.3v-2.9h-1.8c-.2 1.1-1 1.9-2.1 2.1v.2c0 1.7-10.2 1.8-12.4 2-10.3 1.1-21.6 2.2-30.9 6.8-1.1.6-3-2.5-6.9-.6-1.4.7-2.5 1.7-3.3 3-.2.4-.8 5.1-1.8 14.2-.4 3.2-1.3 6.4-2.6 9.4v.1c-9.9 23.3 5.8 13.5 18.9 20.8 1 .5 1.9 1.2 2.7 1.9.6.5 1.1 1 1.6 1.5.6.8 1.2 1.6 1.7 2.5 1.5 2.7 2 4.3 1.6 4.8-.9.5-2 .3-2.5-.6-.4-.8-.2-1.3-.8-2.2-.3-.5-.4-.7-.6-.8z"/></svg>