<svg id="Layer_1" xmlns="http://www.w3.org/2000/svg" viewBox="0 0 503.6 503.6"><style>.st1{fill:#00818f}</style><path d="M1.8 431.5c0 38.8 31.4 70.3 70.2 70.3h359.5c38.8 0 70.3-31.4 70.3-70.3V72.1c0-38.8-31.5-70.3-70.3-70.3H72.1C33.3 1.8 1.8 33.2 1.8 72.1v359.4z" fill="#fff"/><path class="st1" d="M431.5 503.6H72c-39.7 0-72-32.3-72-72.1V72.1C0 32.3 32.3 0 72.1 0h359.4c39.8 0 72.1 32.3 72.1 72.1v359.4c0 39.8-32.3 72.1-72.1 72.1zM72.1 3.6C34.3 3.6 3.6 34.3 3.6 72.1v359.4C3.6 469.3 34.3 500 72 500h359.5c37.8 0 68.5-30.7 68.5-68.5V72.1c0-37.8-30.7-68.5-68.5-68.5H72.1z"/><path class="st1" d="M25.2 431.5c0 25.9 20.9 46.8 46.8 46.9h359.5c25.9 0 46.9-21 46.9-46.8V72.1c0-25.9-21-46.9-46.9-46.9H72.1c-25.9 0-46.9 21-46.9 46.8v359.5zM251 233.7c9.4 0 17.1 7.6 17.1 17.1 0 9.4-7.6 17.1-17.1 17.1-9.4 0-17.1-7.6-17.1-17.1s7.6-17.1 17.1-17.1zm0-14.2c-17.3 0-31.2 14-31.2 31.2s14 31.2 31.2 31.2 31.2-14 31.2-31.2-13.9-31.2-31.2-31.2zm-12.3-71.9s-32 20.3-31.9 20.3l211.1 59.9-32.8 43-96.3-26.6v13.3l117.8 32.8-5.1 12.3-113.8-33.8h-3.1c-13.7 38.9-85.4 18.9-73.8-21.5L95.1 214.5l3.1-11.3L215 237c3.2-6.4 5.7-9.9 7.7-10.8-40.1-10-64.8-18.3-74-24.8-8.6-6-25.9-28.4-25.9-38.2v-20.5l76.8 23.6c-.1 0 35.8-23.7 35.8-23.8s3.3 5.1 3.3 5.1zm124.7 210.1c-1 .2-1.9.5-2.8.9-1.7.9-3.5 1.6-5.4 2.1h-13.3c-7.6 0-10.7-1.4-11.3-6.2l.4-5.1c-2 3.1-4.8 5.8-8 7.7l-4.6 2.6H304c-1.5 0-4.8-2.6-9.7-7.7-6.6 5.1-13.2 7.7-20 7.7h-210V238.8l375 107.6v5.1l-2 4.1c-17.3 8.7-27.6 7.1-30.7-4.6l-1 2.6-2 4.1c-1.3 2.6-7.7 3.1-8.2 3.1h-17.5c-3.2 0-6.6-1.7-10.2-5.1v-3.1l-4.3 5.1z"/></svg>