<svg id="Layer_1" xmlns="http://www.w3.org/2000/svg" viewBox="0 0 503.6 503.6"><style>.st0{fill:#fff}.st1{fill:#00818f}</style><path class="st0" d="M1.8 431.5c0 38.8 31.4 70.3 70.2 70.3h359.5c38.8 0 70.3-31.4 70.3-70.3V72.1c0-38.8-31.5-70.3-70.3-70.3H72.1C33.3 1.8 1.8 33.2 1.8 72.1v359.4z"/><path class="st1" d="M431.5 503.6H72c-39.7 0-72-32.3-72-72.1V72.1C0 32.3 32.3 0 72.1 0h359.4c39.8 0 72.1 32.3 72.1 72.1v359.4c0 39.8-32.3 72.1-72.1 72.1zM72.1 3.6C34.3 3.6 3.6 34.3 3.6 72.1v359.4C3.6 469.3 34.3 500 72 500h359.5c37.8 0 68.5-30.7 68.5-68.5V72.1c0-37.8-30.7-68.5-68.5-68.5H72.1z"/><path class="st1" d="M25.2 431.5c0 25.9 20.9 46.8 46.7 46.9h359.5c25.9 0 46.9-20.9 46.9-46.8V72.1c0-25.9-21-46.9-46.9-46.9H72.1c-25.9 0-46.9 21-46.9 46.8v359.5z"/><path class="st0" d="M238.1 273.1c-20.8 14.5-33.2 38.2-33.3 63.6 0 41.3 34.6 76 76.4 76 36.5-.1 67.8-25.9 74.8-61.7l10.9 27.5c-16 32.8-49.2 53.6-85.7 53.6-52.4 0-95.6-43.2-95.6-95.7 0-34.7 20.4-68.2 50.7-84.4l1.8 21.1z"/><path class="st0" d="M253.9 309.6l-11.6-136.8c-1.8-3.4-2.7-7.2-2.7-11.1 0-13.8 10.5-23.9 24.2-23.9 12.3 0 23.3 10.8 23.3 23.9 0 12.2-9.8 22.8-21.8 23.5l5.3 58.8h69.1v21.6h-67.4l1.9 22.3h94.5l33.5 87.3 34.4-13.1 7.9 20-54.8 21.5-36.1-93.9-99.7-.1zM87.7 147.9l36.4-34.1-14.9 68.5-21.5-34.4z"/><path class="st0" d="M207.2 192.2h-48.6l-28.5-87.1-45.2 43.1 27 43.9H57L87.2 89.4h87.6l32.4 102.8zM131.6 53.8l41.9 31.9-84.6.1 42.7-32z"/></svg>