<svg id="Layer_1" xmlns="http://www.w3.org/2000/svg" viewBox="0 0 503.6 503.6"><style>.st0{fill:#fff}.st1{fill:#00818f}</style><path class="st0" d="M1.8 431.5c0 38.8 31.4 70.3 70.2 70.3h359.5c38.8 0 70.3-31.4 70.3-70.3V72.1c0-38.8-31.5-70.3-70.3-70.3H72.1C33.3 1.8 1.8 33.2 1.8 72.1v359.4z"/><path class="st1" d="M431.5 503.6H72c-39.7 0-72-32.3-72-72.1V72.1C0 32.3 32.3 0 72.1 0h359.4c39.8 0 72.1 32.3 72.1 72.1v359.4c0 39.8-32.3 72.1-72.1 72.1zM72.1 3.6C34.3 3.6 3.6 34.3 3.6 72.1v359.4C3.6 469.3 34.3 500 72 500h359.5c37.8 0 68.5-30.7 68.5-68.5V72.1c0-37.8-30.7-68.5-68.5-68.5H72.1z"/><path class="st1" d="M25.2 431.5c0 25.9 20.9 46.8 46.7 46.9h359.5c25.9 0 46.9-21 46.9-46.8V72.1c0-25.9-21-46.9-46.9-46.9H72.1c-25.9 0-46.9 21-46.9 46.8v359.5z"/><path class="st0" d="M389.7 417.3l-.1 30.3h-18.3v-90.2l18-.1.9 6.9c4.8-6 12.1-9.4 19.7-9.2 18.6 0 29.8 17.4 29.8 35.9 0 19.5-11.5 36.7-30.1 36.7-9.2 0-16-4-19.9-10.3zm-142.3 10.5c-20.7 0-35.8-14.5-35.8-36.9 0-21.5 15-36.3 35.7-36.3 21 0 35.9 14.9 35.9 36.3 0 22.3-15.2 36.9-35.8 36.9z"/><path class="st1" d="M406.1 413.5c10.8-.1 15-11.5 15-21.5 0-15.1-8-21.2-15.8-21.2-7.5 0-15.5 5.8-15.5 22.2 0 14.6 7.5 20.5 16.3 20.5zm-158.8 0c8.9 0 17.2-6.6 17.2-22.5 0-15.5-8.1-22-17.1-22s-17.1 6.4-17.1 22.6c0 15.3 8.4 21.9 17 21.9z"/><path class="st0" d="M338.8 417.6c-4.1 6.4-10.8 10-19.2 10-7.3 0-13-2.4-16.9-6.1-4.4-4-6.8-8.8-6.8-17.6v-46.7h18.3v40.6c0 9.5 4.2 13.2 11 13.2 7.4 0 13.6-5.3 13.6-15.8v-38H357l.1 68.1h-17.2l-1.1-7.7zm-172.7 7.7l.1-68.1h18l.6 10.2c2.4-7.4 9.3-12.3 17-12.2 1.3 0 2.6.2 3.9.5l-.1 16.1c-1-.1-2.1-.2-3.1-.2-4.7-.1-9.3 1.8-12.5 5.3-3 3.2-5.5 8-5.5 18.1l-.1 30.2-18.3.1zm-54.3-35.4v-14.7H152l.1 50.1h-14.6l-.9-12.6c-2.6 5.1-6.8 9.2-11.9 11.8-5.6 2.8-11.7 4.2-17.9 4-9.9 0-19.7-3.7-28.4-12.1-8.9-8.6-14.5-20.7-14.5-37.6 0-27.1 16.6-51.1 45.2-51.1 13.7 0 23.8 4.3 31 10.9 5.8 5.4 9.7 11.9 11.6 21.5l-19.1.6c-2.2-10-10.8-17.2-22.1-17.2-16.6 0-26.9 15.7-26.9 34.9 0 23.4 13 33.8 26.6 33.8 16.6 0 24.5-13.7 25.1-22.3h-23.5zm58.5-161.6l66.9-62.5-27.3 125.7-39.6-63.2z"/><path class="st0" d="M389.3 308.4h-89.1l-52.5-159.8-83 79.2 49.7 80.4H113.5l55.4-188.4h161l59.4 188.6zM250.3 56l76.9 58.6-155.4.3L250.3 56z"/></svg>