<svg id="Layer_1" xmlns="http://www.w3.org/2000/svg" viewBox="0 0 503.6 503.6"><style>.st1{fill:#00818f}</style><path d="M1.8 431.5c0 38.8 31.4 70.3 70.2 70.3h359.5c38.8 0 70.3-31.4 70.3-70.3V72.1c0-38.8-31.5-70.3-70.3-70.3H72.1C33.3 1.8 1.8 33.2 1.8 72.1v359.4z" fill="#fff"/><path class="st1" d="M431.5 503.6H72c-39.7 0-72-32.3-72-72.1V72.1C0 32.3 32.3 0 72.1 0h359.4c39.8 0 72.1 32.3 72.1 72.1v359.4c0 39.8-32.3 72.1-72.1 72.1zM72.1 3.6C34.3 3.6 3.6 34.3 3.6 72.1v359.4C3.6 469.3 34.3 500 72 500h359.5c37.8 0 68.5-30.7 68.5-68.5V72.1c0-37.8-30.7-68.5-68.5-68.5H72.1z"/><path class="st1" d="M25.2 431.5c0 25.9 20.9 46.8 46.8 46.9h359.5c25.9 0 46.9-21 46.9-46.8V72.1c0-25.9-21-46.9-46.9-46.9H72.1c-25.9 0-46.9 20.9-46.9 46.8v359.5zm120.7-119.6l87.1-81.5-35.6 163.8-51.5-82.3zM431.7 417H315.5l-68.4-208.3L139 312l64.7 104.8H72.2l72.2-245.5h209.8L431.7 417zm-182-329.2l100.2 76.4-202.5.4 102.3-76.8z"/><path d="M478.4 419.7L83.9 25.2H72.1c-25.9 0-46.9 21-46.9 46.8v11.6l394.6 394.6h11.6c25.9 0 46.9-21 46.9-46.8v-11.7" fill="#a10019"/></svg>