<svg id="Layer_1" xmlns="http://www.w3.org/2000/svg" viewBox="0 0 503.6 503.6"><style>.st0{fill:#fff}.st1{fill:#00818f}</style><path class="st0" d="M1.8 431.5c0 38.8 31.4 70.3 70.2 70.3h359.5c38.8 0 70.3-31.4 70.3-70.3V72.1c0-38.8-31.5-70.3-70.3-70.3H72.1C33.3 1.8 1.8 33.2 1.8 72.1v359.4z"/><path class="st1" d="M431.5 503.6H72c-39.7 0-72-32.3-72-72.1V72.1C0 32.3 32.3 0 72.1 0h359.4c39.8 0 72.1 32.3 72.1 72.1v359.4c0 39.8-32.3 72.1-72.1 72.1zM72.1 3.6C34.3 3.6 3.6 34.3 3.6 72.1v359.4C3.6 469.3 34.3 500 72 500h359.5c37.8 0 68.5-30.7 68.5-68.5V72.1c0-37.8-30.7-68.5-68.5-68.5H72.1z"/><path class="st1" d="M25.2 431.5c0 25.9 20.9 46.8 46.7 46.9h359.5c25.9 0 46.9-21 46.9-46.8V72.1c0-25.9-21-46.9-46.9-46.9H72.1c-25.9 0-46.9 21-46.9 46.8v359.5z"/><path class="st0" d="M455.1 345.7c-2.9 14.8-15.7 30.6-43 30.6H91.6c-27.3 0-40.1-15.8-43.1-30.6-.5-2.4-.7-4.9-.8-7.4-.1-14.9 8.8-28.4 22.5-34.1 16.9-7 129.3-52.3 172.9-69.1-1.1-3.1-1.6-6.3-1.6-9.6v-.5c.3-13.1 8.6-24.7 20.9-29.2 6.9-2.6 11.7-6.6 14.2-12.1 1.3-2.9 1.9-6 1.9-9.2 0-3.8-.8-7.5-2.1-11-5.3-13.9-19.1-18.6-29.6-17-12.8 1.8-21 11.4-22.2 25.7-.3 5.1-4.7 9.1-9.9 8.8-5.1-.3-9.1-4.7-8.8-9.9v-.4c1.8-22.9 16.8-39.6 38.1-42.7 21.3-3.2 42 8.8 49.6 28.9 4.6 12 4.5 24.3-.2 34.6-4.6 10-13.1 17.6-24.8 21.8-5.1 1.8-8.5 6.5-8.7 11.9-.1 6.4 4.8 11.9 13.4 15.3l47.1 18.7c44.5 17.6 100 39.7 112.7 44.9 16.4 6.5 25.5 24 22 41.6"/><path class="st1" d="M426.4 321.3c-12.6-5.2-68-27.2-112.6-44.9l-47.1-18.7c-4.4-1.8-8.6-4.2-12.4-7.2-39.3 15.2-159.5 63.6-177 70.8-7.4 3-10.8 10.5-10.8 17.2 0 1.2.1 2.3.3 3.5 1.9 9.9 10.9 15.6 24.8 15.6h320.6c13.7 0 22.8-5.7 24.7-15.5.2-1.2.3-2.4.3-3.6 0-6.7-3.4-14.2-10.8-17.2"/></svg>