<svg id="Layer_1" xmlns="http://www.w3.org/2000/svg" viewBox="0 0 503.6 503.6"><style>.st0{fill:#fff}.st1{fill:#00818f}</style><path class="st0" d="M1.8 431.5c0 38.8 31.4 70.3 70.2 70.3h359.5c38.8 0 70.3-31.4 70.3-70.3V72.1c0-38.8-31.5-70.3-70.3-70.3H72.1C33.3 1.8 1.8 33.2 1.8 72.1v359.4z"/><path class="st1" d="M431.5 503.6H72c-39.7 0-72-32.3-72-72.1V72.1C0 32.3 32.3 0 72.1 0h359.4c39.8 0 72.1 32.3 72.1 72.1v359.4c0 39.8-32.3 72.1-72.1 72.1zM72.1 3.6C34.3 3.6 3.6 34.3 3.6 72.1v359.4C3.6 469.3 34.3 500 72 500h359.5c37.8 0 68.5-30.7 68.5-68.5V72.1c0-37.8-30.7-68.5-68.5-68.5H72.1z"/><path class="st1" d="M80.2 25.2h343.3c30.3 0 54.9 24.6 54.9 54.9v343.3c0 30.3-24.6 54.9-54.9 54.9H80.2c-30.3 0-54.9-24.6-54.9-54.9V80.2c-.1-30.4 24.5-55 54.9-55z"/><path class="st0" d="M276.1 318.5H56.7l10-79.8c0-9.5 8.5-18 19-18l80-8.1 82.1 8.1h.1c9.8 0 18.3 8.4 18.3 18.8l9.9 79zM72.6 304.4h187.5l-8-63.9c-.1-3.5-2.3-5.6-5-5.6l-81.4-8.1-79.3 8.1c-3.4 0-5.7 2.2-5.7 4.8l-8.1 64.7zm363.2 87.3c-18.2-9.1-34.8-7.3-57.7 2.3-13 5.5-33.7 4-48.4-2.1-20.2-8.5-31.6-6.4-52.7 1.2-16.4 5.9-31.2 5.9-47.5 0-21.1-7.6-32-9.7-52.2-1.2-14.6 6.2-35.6 7.6-48.7 2.1-22.9-9.6-39.2-11.4-57.3-2.3 0 0-7.8 4.8-25.1 4.8v19c17.3 0 25.1-4.8 25.1-4.8 18.2-9.1 34.5-7.3 57.3 2.4 13 5.5 34 4 48.7-2.1 20.2-8.5 31.1-6.5 52.2 1.2 16.3 5.9 31.1 5.9 47.5 0 21.1-7.6 32.6-9.7 52.7-1.2 14.6 6.2 35.3 7.6 48.4 2.1 22.9-9.6 39.5-11.4 57.7-2.4 0 0 7.5 4.8 25.1 4.8v-19c-17.5 0-25.1-4.8-25.1-4.8z"/><path class="st0" d="M161.1 219.3h10.6V260h-10.6v-40.7z"/><path class="st0" d="M128.7 380.9c13 6.8 34 5 48.7-2.6 20.2-10.5 31.1-8 52.2 1.5 4.9 2.2 10.1 3.7 15.5 4.5 21.7-35.1 43.5-71.9 43.5-71.9 3.9-8.9 0-17-9.3-20.9l-15.5-6.2-98.7-33.3-96.2 33.3-15.5 6.2c-9.3 3.9-13.2 12-9.3 20.9 0 0 17.1 29 37.2 61.3 14.5-5.3 28.8-2.5 47.4 7.2z"/><path class="st1" d="M148.7 388.1c-7.9 0-15.4-1.5-21.3-4.6-18.8-9.8-31.9-11.8-45-7.2l-2.2.8-1.3-2c-19.8-31.9-37-61-37.2-61.3-2.3-5.2-2.5-10.1-.7-14.4 1.9-4.7 5.8-8.4 11.4-10.7l15.5-6.2 97.3-33.7 1 .3 98.7 33.3 15.6 6.3c5.6 2.3 9.5 6 11.4 10.7 1.7 4.6 1.5 9.7-.5 14.1-.4.7-22.2 37.6-43.7 72.3l-1 1.7-1.9-.3c-5.6-.9-11-2.4-16.2-4.7-20.1-9-30.2-11.7-49.7-1.5-9.4 4.6-19.7 7.1-30.2 7.1zm-18.6-9.8c11.6 6.1 31.4 4.9 46-2.6 21.4-11.2 33.7-8 54.8 1.4 4.1 1.8 8.4 3.2 12.8 4 21.1-34.1 42.2-69.8 42.4-70.2 1.3-2.9 1.4-6.2.3-9.2-1.3-3.2-4.1-5.8-8.2-7.5l-15.5-6.2-97.6-33-95.2 33-15.3 6.2c-4 1.7-6.9 4.3-8.1 7.5-1.2 3.1-1 6.6.5 9.5 0 0 16.5 27.8 35.8 58.8 13.8-4.2 28.1-1.7 47.3 8.3z"/><path class="st0" d="M165.2 260.6l95.6 32.3 15.4 6.2c2.7 1.1 4.6 2.8 5.3 4.6.5 1.5.5 3.1 0 4.5-.2.4-20 33.8-40.4 66.9-2.8-.7-5.5-1.6-8.1-2.8-12.8-5.7-22.1-9-32.2-9-8.5 0-16.9 2.4-27.2 7.8-7.8 3.9-16.3 5.9-25 5.9-6.3 0-11.9-1.1-16-3.3-14.2-7.4-25.8-10.8-36.7-10.8-3.6 0-7.2.4-10.7 1.1-18.3-29.4-33.4-55-33.5-55-.9-1.7-1-3.7-.4-5.5.7-1.8 2.6-3.4 5.2-4.5l15.1-6 93.6-32.4m0-8.7L69 285.2l-15.5 6.2c-9.3 3.9-13.2 12-9.3 20.9 0 0 17.1 29 37.2 61.3 4.6-1.7 9.5-2.5 14.4-2.6 9.9 0 20.5 3.4 32.9 9.9 5.5 2.9 12.5 4.2 19.8 4.2 10 0 19.9-2.3 28.9-6.8 9.1-4.7 16.3-6.8 23.4-6.8 8.7 0 17.2 3.1 28.8 8.3 4.9 2.2 10.1 3.7 15.5 4.5 21.7-35.1 43.5-71.9 43.5-71.9 3.9-8.9 0-17-9.3-20.9l-15.5-6.2-98.6-33.4zm207.7 34.7h88v23.8h-88v-23.8z"/><path class="st0" d="M329.8 378.7c13.4 7 31.6 8.7 44.6 3.8l-1.5-111.4h-45.2v106.8c.8.3 1.3.4 2.1.8z"/><path class="st1" d="M372.9 271.1l1.5 111.4c-5.4 1.9-11 2.9-16.7 2.8-9.7 0-19.2-2.3-27.9-6.6-.8-.4-1.4-.5-2.1-.8V271.1h45.2m5.8-5.9h-56.9v116.3l3.3 1.6.3.2 1.3.5c9.6 4.9 20.2 7.4 30.9 7.4 6.4.1 12.8-1 18.8-3.1l3.9-1.5v-4.1L378.8 271l-.1-5.8z"/><path class="st0" d="M395.1 125.8c7.1.1 12.8-5.6 12.9-12.7v-.4c-.1-7.1-5.9-12.8-13-12.9-7.4 0-12.9 5.6-12.9 13.1 0 7.1 5.6 12.8 12.7 12.9h.3zm-10.3 35.3c6.8-27.5 11.5-36.3 22.5-36.3 3.4 0 5.8 1.6 11.1 6.2 2.8 2.4 3.6 5.7 5.7 8.6 2.1 3.4 3.8 7 5.2 10.7 1.2 3.2 1.7 6.2 3 9.6.7 1.9 1.5 5 2 6.8 2.2 8.1 2.8 12.7 2.8 14.1.1 4.1-.2 8.2-.9 12.2.6 2.8 1.6 5.6 2.9 8.1l22 66.7-11.8 9.6-29-63.4c-3.8 4.9-7.8 9.6-12.1 14.1l-2.6 13.4-6.4 34.6-18.4-3.5 8.4-41.3c4.1-17.2 13.1-40.1 18.7-48.2-3.5-5.8-6.1-10.7-8.8-16.3l-3.4 7.1-30.9 15.2-4.2 2-5.5-9.4 29.7-20.6z"/></svg>