<svg id="Layer_1" xmlns="http://www.w3.org/2000/svg" viewBox="0 0 503.6 503.6"><style>.st0{fill:#fff}.st1{fill:#00818f}</style><path class="st0" d="M1.8 431.5c0 38.8 31.4 70.3 70.2 70.3h359.5c38.8 0 70.3-31.4 70.3-70.3V72.1c0-38.8-31.5-70.3-70.3-70.3H72.1C33.3 1.8 1.8 33.2 1.8 72.1v359.4z"/><path class="st1" d="M431.5 503.6H72c-39.7 0-72-32.3-72-72.1V72.1C0 32.3 32.3 0 72.1 0h359.4c39.8 0 72.1 32.3 72.1 72.1v359.4c0 39.8-32.3 72.1-72.1 72.1zM72.1 3.6C34.3 3.6 3.6 34.3 3.6 72.1v359.4C3.6 469.3 34.3 500 72 500h359.5c37.8 0 68.5-30.7 68.5-68.5V72.1c0-37.8-30.7-68.5-68.5-68.5H72.1z"/><path class="st1" d="M80.2 25.2h343.3c30.3 0 54.9 24.6 54.9 54.9v343.3c0 30.3-24.6 54.9-54.9 54.9H80.2c-30.3 0-54.9-24.6-54.9-54.9V80.1c0-30.3 24.5-54.9 54.9-54.9z"/><path class="st0" d="M434.8 173.6c-1.2 1.9-3.2 3.3-5.5 3.8h-.3l-81.8 21.5c-6.2-2.6-15.6-8.8-26.9-18.9-2-1.8-4.2-3.6-6.7-5.6 1.5-.2 3.1-.4 4.7-.7 3.2-.5 65.5-8.3 106.6-13.3h.3l.3-.1c4.7-1 9.4 1.9 10.4 6.6.6 2.4.2 4.8-1.1 6.7m-75.7 35l15.3-3.9c-1.6 8.3-5.3 16.3-10.9 21.9.2-6.5-1.9-13-4.4-18M88.8 277.1h338.8v60.7H88.8v-60.7zm87.5 73.9h162.1v76.2H176.3V351zm-23.6-124.2c-5.8-5.6-9.5-13.7-11.2-22.1l15.3 3.9c-2.4 5.1-4.5 11.7-4.1 18.2m-66.8-49.4c-4-.9-6.9-4.4-6.9-8.6 0-.6.1-1.2.2-1.9 1-4.7 5.7-7.7 10.4-6.7l.3.1h.3l14.4 1.8c11.7 1.4 24.1 3 36 4.5 28.8 3.6 54.1 6.7 56.1 7.1 1.9.3 3.6.6 5.3.8-2.4 1.9-4.7 3.7-6.6 5.5-11.4 10.3-20.9 16.5-27.1 19.1L86 177.6l-.1-.2zm-18.5-54v-47c3.8 5.1 8 10.6 12.4 16.3L73 130.2c-1.9-2.4-3.8-4.6-5.6-6.8m36.1-.8l-4.4 24.5-7.1-.9.6.1c-2.5-.5-5.1-.6-7.7-.3-1.8-2.1-3.6-4.2-5.4-6.4l7-39.1c5 6.6 10.8 14.1 17 22.1m6.7 8.5c5.2 6.4 10.6 12.9 16.1 19.4l-19.1-2.4 3-17zm84.6 18.4c-.5 1.6-.9 3.2-1 4.8-.1 2.1.1 4.3.7 6.3l-24.1-2.9c7.7-3.8 15.9-6.5 24.4-8.2m7.1 5.3c.2-2.5 1.2-4.9 3-6.8 2.5-.2 5.1-.4 7.7-.4 10.1.1 20.2 1.3 30 3.7-8.1 3.4-16 7.4-23.6 11.8-2-.2-3.9-.4-5.9-.4l-8.9-1.1c-1.6-1.8-2.5-4.3-2.3-6.8m43 20.1v1.4c.1 1.9.1 3.7.3 5.4.1 1.4.2 2.7.4 3.9-8.2 5.6-16.1 11.8-23.4 18.6-5.4-9.4-5.5-19-.2-29.3.2-.5.5-.9.7-1.4.4-.7.8-1.4 1.2-2 1-.6 2.1-1.2 3.2-1.8 1.9-1.1 3.9-2.1 5.9-3.2 3.9-2 7.9-3.9 12.2-5.7-.2 3-.4 6.6-.4 10.3.1 1.3.1 2.6.1 3.8m8.1 0c0-6.4.3-13.7.6-17.5 1.4-.5 2.9-1 4.3-1.5l7.5-2.4c2.5-.8 5.2-1.4 7.8-2.1 1.8-.4 3.7-.8 5.5-1.2.4.6.7 1.2 1 1.9.3.8.5 1.6.7 2.5.3 1.8.5 3.7.5 5.6 0 1.7-.2 3.5-.4 5.2-.1.7-.2 1.4-.4 2-5.8 2.1-11.5 4.6-16.9 7.5-1.8.9-3.6 1.9-5.3 2.9-1.6.9-3.2 1.8-4.7 2.8-.1-1.7-.1-3.6-.2-5.5l-.4-.2h.4zm75.9 41.6c-.3 4.8-2.5 9.4-6.1 12.6-2.9-1.6-5.7-3.4-8.4-5.4-4.5-3.5-8.7-7.3-12.6-11.5-.6-.6-1.2-1.3-1.9-1.9 6.2-9.8 7.8-20 4.7-30.5 3.2 2.3 6.3 4.8 9.3 7.4 2.6 2.4 5.4 4.8 8.3 7.1 2 3.1 3.7 6.5 4.9 10 1.5 3.8 2.1 8 1.8 12.2m-61.7-32.9c6.5-3.6 13.4-6.5 20.5-8.7 1.8-.6 3.7-1 5.5-1.4.3.5.5.9.7 1.4 5.5 10.3 5.5 20.1 0 29.5a214.8 214.8 0 0 0-26.7-20.8m-51 26.4c-.7.7-1.4 1.4-2.1 2.2-4.1 4.4-8.5 8.4-13.3 12-2.3 1.7-4.8 3.3-7.3 4.7-3.7-3.2-5.9-7.8-6.2-12.7-.2-4 .3-8 1.6-11.8 1.2-3.6 2.8-7 4.9-10.2 2.9-2.3 5.7-4.8 8.3-7.1 3-2.7 6.2-5.2 9.5-7.5-3.2 10.4-1.7 20.6 4.6 30.4m-37.1 6.8c.4 5.7 2.6 11.2 6.4 15.5-6.9 2.2-12.6 1.8-17.4 1.5-1.8-.1-3.6-.5-5.3-1-1-1.6-1.6-3.4-1.8-5.3-.8-6.2 1.9-13.3 4.6-17.9 4.6-.6 9.8-3 15.1-6.2-1.4 4.3-1.9 8.8-1.6 13.4m154.6 38.4v6.8H181.5v-6.7c1.2-1.2 2.6-2.2 4-3.1l2-1.4s7.6-5.6 7.7-5.6c3.1-2.2 5.1-5.6 5.6-9.4 6.2-3.7 13-9.2 20.4-17 8.8-9.5 22.3-20.7 36.9-29.7 13.5 8.4 25.9 18.4 36.9 29.7 5.8 6.4 12.4 11.9 19.6 16.6.4 4 2.4 7.6 5.6 9.9l2.5 1.8 5.1 3.8 2 1.4c1.4.8 2.8 1.9 3.9 2.9m1.7-51.7c5.3 3.2 10.4 5.4 15 6.1 2.8 4.6 5.6 11.8 4.8 18.2-.2 1.7-.7 3.3-1.5 4.8-1.9.6-3.8 1-5.8 1.1-4.7.3-10.2.7-17-1.4 3.6-4.3 5.8-9.7 6.2-15.3.2-4.5-.4-9.1-1.7-13.5m-32.1-55.8c2.8 0 5.5.1 8.2.4 1.6 1.8 2.5 4.1 2.7 6.4.2 2.7-.8 5.3-2.5 7.3l-8.9 1.1c-2 0-3.9.2-5.9.4-2.5.3-4.9.8-7.4 1.3l-.8.2v-.6c.2-1.8.3-3.5.2-5.3 0-3.3-.6-6.5-1.7-9.6-.1-.2-.1-.3-.2-.4 5.5-.8 10.9-1.2 16.3-1.2m42.2 10l-24 2.9c.7-2.1 1-4.4.8-6.6-.1-1.5-.4-3-.8-4.5 8.3 1.8 16.4 4.5 24 8.2"/></svg>