<svg id="Layer_1" xmlns="http://www.w3.org/2000/svg" viewBox="0 0 503.6 503.6"><style>.st1{fill:#00818f}</style><path d="M1.8 431.5c0 38.8 31.4 70.3 70.2 70.3h359.5c38.8 0 70.3-31.4 70.3-70.3V72.1c0-38.8-31.5-70.3-70.3-70.3H72.1C33.3 1.8 1.8 33.2 1.8 72.1v359.4z" fill="#fff"/><path class="st1" d="M431.5 503.6H72c-39.7 0-72-32.3-72-72.1V72.1C0 32.3 32.3 0 72.1 0h359.4c39.8 0 72.1 32.3 72.1 72.1v359.4c0 39.8-32.3 72.1-72.1 72.1zM72.1 3.6C34.3 3.6 3.6 34.3 3.6 72.1v359.4C3.6 469.3 34.3 500 72 500h359.5c37.8 0 68.5-30.7 68.5-68.5V72.1c0-37.8-30.7-68.5-68.5-68.5H72.1z"/><path class="st1" d="M25.2 431.5c0 25.9 20.9 46.8 46.7 46.9h359.5c25.9 0 46.9-20.9 46.9-46.8V72.1c0-25.9-21-46.9-46.9-46.9H72.1c-25.9 0-46.9 20.9-46.9 46.8v359.5zm342.3-123.1c30.7-11.2 42.9 32.1 31 37.4L343 370.3l45.1 11.6c14.8 3.8 9.5 42.3-6.5 40-.8-.1-124.1-27.5-125.1-27.1l-133.9 44.8c-22-.8-23.9-37.7-19.6-41 3.8-2.9 64.4-23.6 63.8-23.9-30.5-11.6-56.2-21.7-61.3-23.9-11.2-4.7 1.5-39.4 15.9-36L261.8 347l105.7-38.6zm-161.8-48.3c.7-.6-.3-6.8-2.9-18.7-5.1-22.9-6.6-46.5-4.5-69.9 1.8-19.4 9.2-37.5 22-54.3 13.1-17.1 21.7-34.8 26-53.2 42.9 25.2 69.6 115 46.5 161.8l-10.6 21.4c-5 10-7.1 21.1-6.3 32.2 7.2-12.9 11.9-23.4 14.2-31.6l13.1-29.8c8.7-13.8 10-35.4 4-64.8-3.2-15.7-3.8-23.5-1.6-23.5 4.6 4.9 9.3 9.8 14.2 14.5 78 76.3 41.9 172.2-48.4 180.2-140.9 12.6-139.3-138.2-74.8-176.7l-4.2 23.6-2.3 20.5-2.6 20.4c-.7 7.1 13.1 52.3 18.2 47.9zm22 45.4V303l-4.7-4.7-4.7-4.7c-4.4-4.4-20.3-4.1-20.3-2.2v2.6l10.3 6.5 19.4 5zm37.5-.1c-9.1-19.1-12.9-32.7-11.6-40.6l3.9-23.2v-18.1l-9-20.6-6.2 9.9c-12.2 19.4-14 39.7-5.4 60.8 6.7 16.5 22.2 32.6 23.2 32.5l5.1-.7zm33.4-3c9.3-1 17.3-5.5 24-13.6 10.8-13.2 10.6-34.5-.7-63.8l-1.3 9c0 .5-2.4 5.2-7.3 14.1-9.8 18-14.7 27.9-14.7 29.9v24.4z"/></svg>