<svg id="Layer_1" xmlns="http://www.w3.org/2000/svg" viewBox="0 0 503.6 503.6"><style>.st0{fill:#fff}.st1{fill:#00818f}</style><path class="st0" d="M1.8 431.5c0 38.8 31.4 70.3 70.2 70.3h359.5c38.8 0 70.3-31.4 70.3-70.3V72.1c0-38.8-31.5-70.3-70.3-70.3H72.1C33.3 1.8 1.8 33.2 1.8 72.1v359.4z"/><path class="st1" d="M431.5 503.6H72c-39.7 0-72-32.3-72-72.1V72.1C0 32.3 32.3 0 72.1 0h359.4c39.8 0 72.1 32.3 72.1 72.1v359.4c0 39.8-32.3 72.1-72.1 72.1zM72.1 3.6C34.3 3.6 3.6 34.3 3.6 72.1v359.4C3.6 469.3 34.3 500 72 500h359.5c37.8 0 68.5-30.7 68.5-68.5V72.1c0-37.8-30.7-68.5-68.5-68.5H72.1z"/><path class="st1" d="M80.2 25.2h343.3c30.3 0 54.9 24.6 54.9 54.9v343.3c0 30.3-24.6 54.9-54.9 54.9H80.2c-30.3 0-54.9-24.6-54.9-54.9V80.2c-.1-30.4 24.5-55 54.9-55z"/><path class="st0" d="M425.7 422.8c0 12-9.8 21.7-21.8 21.7H134.7c-12 0-21.7-9.7-21.8-21.7v-50.6h22.2v50.2h268.4v-50.2h22.2M77.9 286.4c5-16.9 13.9-32.5 25.8-45.5l88.4-95.9 6.2-24.6 18.8-20.3 28.6 26.2L124 257.2a89.93 89.93 0 0 0-21.2 36.9l-24.9-7.7z"/><path class="st0" d="M241.9 59.2l90.2 82.8c-19.2 21.3-37.3 35.5-66.1 38.3l-8.2-53.9-42.3-38.8 26.4-28.4zM269 340.4c19 .1 34.3 15.5 34.2 34.5s-15.5 34.3-34.5 34.2c-18.9-.1-34.2-15.4-34.2-34.4 0-18.9 15.5-34.3 34.5-34.3m3.6-103.4l8.4-33.2c18.4 4.7 29.4 23.5 24.7 41.8-4.7 18.4-23.5 29.4-41.8 24.7-14.9-3.8-25.4-17.1-25.8-32.4v-.2l34.5-.7z"/><path class="st0" d="M265.4 229.1l-34.4-2.5c.4-4.9 1.8-9.6 4.1-13.8 7.1-12.4 21.1-19.4 34.5-17.8l-4.2 34.1zm-48.9 145.7c.1 19.1-15.3 34.6-34.4 34.7s-34.6-15.3-34.7-34.4c-.1-19.1 15.3-34.6 34.4-34.7h.2c19 0 34.5 15.4 34.5 34.4M191 307c-.1-19.1 15.3-34.6 34.4-34.7s34.6 15.3 34.7 34.4-15.3 34.6-34.4 34.7h-.2c-19 0-34.5-15.4-34.5-34.4m156.4 0c.1 19.1-15.3 34.6-34.4 34.7s-34.6-15.3-34.7-34.4 15.3-34.6 34.4-34.7h.2c19 0 34.4 15.4 34.5 34.4m43.2 67.8c.1 19.1-15.3 34.6-34.4 34.7s-34.6-15.3-34.7-34.4 15.3-34.6 34.4-34.7h.1c19 0 34.5 15.4 34.6 34.4-.1 0-.1 0 0 0"/></svg>