<svg id="Layer_1" xmlns="http://www.w3.org/2000/svg" viewBox="0 0 503.6 503.6"><style>.st0{fill:#fff}.st1{fill:#00818f}</style><path class="st0" d="M1.8 431.5c0 38.8 31.4 70.3 70.2 70.3h359.5c38.8 0 70.3-31.4 70.3-70.3V72.1c0-38.8-31.5-70.3-70.3-70.3H72.1C33.3 1.8 1.8 33.2 1.8 72.1v359.4z"/><path class="st1" d="M431.5 503.6H72c-39.7 0-72-32.3-72-72.1V72.1C0 32.3 32.3 0 72.1 0h359.4c39.8 0 72.1 32.3 72.1 72.1v359.4c0 39.8-32.3 72.1-72.1 72.1zM72.1 3.6C34.3 3.6 3.6 34.3 3.6 72.1v359.4C3.6 469.3 34.3 500 72 500h359.5c37.8 0 68.5-30.7 68.5-68.5V72.1c0-37.8-30.7-68.5-68.5-68.5H72.1z"/><path class="st1" d="M25.2 431.5c0 25.9 20.9 46.8 46.8 46.9h359.5c25.9 0 46.9-21 46.9-46.8V72.1c0-25.9-21-46.9-46.9-46.9H72.1c-25.9 0-46.9 21-46.9 46.8v359.5z"/><path class="st0" d="M416.5 28v83.8c-10.2 2.1-19.8 21.6.1 30.6v83.8c.1 8.1-.9 13.3-5.5 13.3h-16.3c-2.6 0-4.9-4.5-5.6-9.1-.2-1.4 5 3.8 4.3 2.1-2-4.9-8.2-20.2-8.2-13.4v16.4c0 6.1 3.6 9.4 10.8 9.4h13.6c9.4 0 11.5-10.2 11.5-13.9v-88.1c12.8-.4 24.1-24.9 0-31V28h-4.7z"/><path class="st1" d="M417.8 136.1c6.2 1.8 15.1-6.3 8.8-14.5-3.4-4.1-11.5-4.5-14.4.4-2.9 4.1.8 12.6 5.6 14.1z"/><path class="st0" d="M83.1 356c-.6-.6 25.1-44.2 23.6-47l-22.6-41 51.3 31.6 5.9-.4 10.3-8.9c40.8-35.6 152.2-49 207.7-27.1 12.8 5.2 32 16.2 58.2 33.4-.8 1.2-3.3 4.9-7.9 10.8-1.3 1.8-2.6 3.6-3.6 5.4 1.1 1.3 3.9 4.4 8.2 9.2 1.2 1.6 2.6 3.1 4.1 4.6-41 29.8-84.1 44.4-129.8 43.6-66.4-1-77.2-2.8-137.4-37.7l-11.5-6.4c-.6-.2-2.3-.2-5.1 0-1.3 0-50.5 31.1-51.4 29.9z"/><path class="st1" d="M379.9 284.1c4.5 0 8.1 3.6 8.1 8.1s-3.6 8.1-8.1 8.1-8.1-3.6-8.1-8.1c0-4.4 3.6-8.1 8.1-8.1z"/></svg>