<svg id="Layer_1" xmlns="http://www.w3.org/2000/svg" viewBox="0 0 503.6 503.6"><style>.st1{fill:#00818f}</style><path d="M1.8 431.5c0 38.8 31.4 70.3 70.2 70.3h359.5c38.8 0 70.3-31.4 70.3-70.3V72.1c0-38.8-31.5-70.3-70.3-70.3H72.1C33.3 1.8 1.8 33.2 1.8 72.1v359.4z" fill="#fff"/><path class="st1" d="M431.5 503.6H72c-39.7 0-72-32.3-72-72.1V72.1C0 32.3 32.3 0 72.1 0h359.4c39.8 0 72.1 32.3 72.1 72.1v359.4c0 39.8-32.3 72.1-72.1 72.1zM72.1 3.6C34.3 3.6 3.6 34.3 3.6 72.1v359.4C3.6 469.3 34.3 500 72 500h359.5c37.8 0 68.5-30.7 68.5-68.5V72.1c0-37.8-30.7-68.5-68.5-68.5H72.1z"/><path class="st1" d="M65.5 25.9c-10.4 1.5-19 6-27 14-6.2 6.6-10.5 14.8-12.3 23.7-.8 4.5-.9 33.1-1 186 0 115.8.2 183 .6 187 .5 6 2.2 11.8 5 17.1 6.3 12.4 19.2 22 32.7 24.3 3.5.5 51 .6 190.9.5 175.1-.2 186.5-.3 190.1-1.3 15.6-4.7 27.8-16.8 32.5-32.4 1.1-3.7 1.2-13.5 1.4-190.8.1-202.3.3-190.7-3.3-199.7-4.8-11.7-15.4-21.7-27.9-26.2-3.6-1.1-7.3-1.9-11-2.2-8.3-.9-365.1-.8-370.7 0zm25.3 148.5c17.5.9 23 1.1 44.6 2 5.6.2 11.4.5 12.8.6s10.6.6 20.3.9 19.7.9 22.2 1.1c3.7.3 4.4.3 4.4-.7s.8-1.1 4.6-1.1 4.6.2 4.6 1.1.6 1 4.5.7c2.4-.2 12.6-.7 22.6-1.1s19.3-.8 20.7-.9c2.4-.2 11.3-.6 30.4-1.3 4.5-.2 10.6-.5 13.5-.7s11.4-.6 18.9-1c15.5-.8 17-.5 19 3.7 1.4 2.9 1.4 4.2 0 7.1-1.7 3.6-4.4 4.5-11.6 4.1-3.3-.2-12.7-.7-21.1-1-20.8-.9-28.1-1.2-43-2-7-.3-16.9-.8-22-1s-13.6-.6-19-.8c-14.2-.7-12.9-1.4-12.7 7l.2 7 7.9.3 7.9.3 6.2 3.7c3.4 2 8.3 4.9 10.9 6.4l4.7 2.7h140.5l2.2-4.4c4.2-8.6 12.1-14.3 21.9-15.9 12.4-2 25 4.9 30.7 17.1 1.9 3.9 2 4.8 2 11.5 0 7-.1 7.4-2.4 12.1-4.7 9.6-12.7 15.4-23.5 16.8-3.9.5-12-1.1-16.4-3.4-3.3-1.7-8.3-6.2-10.9-9.8l-1.3-2-9.8 2.2c-9.6 2.1-12.7 2.8-29.1 6.3-10.3 2.2-17.8 4.1-20.1 5-1.8.8-11.3 6.2-52 29.7-9.9 5.8-19.5 11.1-21.2 12-5 2.2-10.5 3.3-15.9 3.4h-4.1v28.8l17.6.2c16.3.2 17.8.3 19 1.4 1.6 1.5 1.8 5 .3 6.6-.9.9-9 1-79.1 1h-78.1l-7.6-4.3c-10.2-5.8-11.4-7.3-8.5-11 2.2-2.7 4.5-2.3 12 2.2l6.5 3.9h14.9v-28.8h-3.4c-5.1 0-11.6-1.2-14.8-2.6-1-.5-2.1-.9-3.1-1.3-.8 0-21.7-14.4-23.1-15.9-3-3.4-4.6-7.7-4.7-12.2-.3-4.1-.1-5.2 1.5-8.3 1-2.1 2.4-4 4.1-5.6 2-1.6 15.2-9.5 35.6-21.1 1.2-.7 5.8-3.4 10-5.9 12.2-7.1 13.6-7.7 20.3-7.7 6.3 0 4.1.9 21.5-9.4l5.6-3.3 7.9-.3 7.9-.3.2-7.1c.1-4.5-.1-7-.5-7.1-.6-.1-1.2-.1-1.8-.1-1.5-.1-26.4.9-30.4 1.2-1.6.1-7.3.4-12.8.7s-12.1.5-14.8.7-12.2.6-21 1-22 1-29.3 1.3c-15.6.9-16.9.5-19.2-3.9-1.2-2.4-1.3-3-.6-5.1 1.1-3.3 4-5.6 7.5-6 0-.3 8.4.1 18.3.6z"/><path class="st1" d="M405.8 200.9c-3.8 1.2-7.3 3.4-10 6.4-3.4 4.1-3.1 4.1 7.5 4.1s12.7.5 14.4 3.9c1.4 2.9 1.3 6.2-.3 9-1.4 2.4-3 2.9-15.2 5.6l-7.1 1.5 2.2 2.2c5 5.2 14.9 7.1 21.3 4 4.3-2.2 8.5-6.4 10-10.3 1.6-4.3 1.7-11.2.1-15.2-2-4.2-5.4-7.7-9.5-9.8-3.2-1.5-10.1-2.2-13.4-1.4zm-281.9 30.2c-11.2 6.5-20.8 12-21.2 12.3-1.1.7-.3 1.8 4.2 5.2 8.4 6.4 13.7 8.2 24.3 7.9l7.8-.2 8.8-15.4c4.8-8.5 8.7-15.7 8.7-16.1s-1.1-1-2.5-1.2c-2-.5-3.9-1.3-5.6-2.4-1.1-.8-2.3-1.4-3.6-1.9-.4.1-9.7 5.4-20.9 11.8zm43.4-5.1c-.5.9-2.1 3.6-3.5 6.1s-5.2 8.9-8.3 14.3-5.6 9.8-5.6 10 11.1.3 24.6.3H199v-32.1h-15.4c-15.3 0-15.4 0-16.3 1.4zm41.6 14.6v16.1h23.7l2.9-2.2c1.6-1.1 6.8-4.8 11.4-8l8.5-5.9.1-8.1v-8h-46.6v16.1zm-72.9 66V321h89.9v-28.9H136v14.5z"/></svg>