<svg id="Layer_1" xmlns="http://www.w3.org/2000/svg" viewBox="0 0 503.6 503.6"><style>.st1{fill:#00818f}</style><path d="M1.8 431.5c0 38.8 31.4 70.3 70.2 70.3h359.5c38.8 0 70.3-31.4 70.3-70.3V72.1c0-38.8-31.5-70.3-70.3-70.3H72.1C33.3 1.8 1.8 33.2 1.8 72.1v359.4z" fill="#fff"/><path class="st1" d="M431.5 503.6H72c-39.7 0-72-32.3-72-72.1V72.1C0 32.3 32.3 0 72.1 0h359.4c39.8 0 72.1 32.3 72.1 72.1v359.4c0 39.8-32.3 72.1-72.1 72.1zM72.1 3.6C34.3 3.6 3.6 34.3 3.6 72.1v359.4C3.6 469.3 34.3 500 72 500h359.5c37.8 0 68.5-30.7 68.5-68.5V72.1c0-37.8-30.7-68.5-68.5-68.5H72.1z"/><path class="st1" d="M25.2 431.5c0 25.9 20.9 46.8 46.7 46.9h359.5c25.9 0 46.9-20.9 46.9-46.8V72.1c0-25.9-21-46.9-46.9-46.9H72.1c-25.9 0-46.9 20.9-46.9 46.8v359.5zm283.4-2.3l-38.6 7.3-8.2-44.1-22.9 39.2-20.4-3.2 38.1-65-5.5-28.4c-9-9.5-17.4-19.4-25.4-29.7l-60.9 133.8-24.8-20.2 46.4-144.2c3.3-9.7 3.5-9.8 5.8-13.7-5.2-5.4-8.5-12.7-8.5-23.6 0-6.4 1.9-21.2 8.1-39.6-11.4 2.2-20.9-1.5-28.8-13.7l39.1-86.4c13.9-1 23.3 3.8 28.9 11.2l-16.3 38.7c5.4-5.4 9.6-11.8 14.6-17.4 9.8-11.2 16.2-13.1 23.4-13.1 22.9 0 32.9 18.6 47.2 76.6l62.8 43.9-11.4 19.9-8.9-4.3-51.4 88.9 17.6 87.1zm-30.3-310c-15 0-27.2-11.6-27.2-27.6 0-14.6 12.5-27.2 27.2-27.2 15.6 0 27.1 11.9 27.1 27.6.1 14.9-11.9 27-26.7 27.1-.1.1-.2.1-.4.1zm5.6 198.8l42.4-72.7-49-24.1-7.2-15c-5.6 11.7-11.2 22.2-18.6 34.4 12 16.8 23.8 41.1 32.4 77.4z"/></svg>