<svg id="Layer_1" xmlns="http://www.w3.org/2000/svg" viewBox="0 0 503.6 503.6"><style>.st0{fill:#fff}.st1{fill:#00818f}</style><path class="st0" d="M1.8 431.5c0 38.8 31.4 70.3 70.2 70.3h359.5c38.8 0 70.3-31.4 70.3-70.3V72.1c0-38.8-31.5-70.3-70.3-70.3H72.1C33.3 1.8 1.8 33.2 1.8 72.1v359.4z"/><path class="st1" d="M431.5 503.6H72c-39.7 0-72-32.3-72-72.1V72.1C0 32.3 32.3 0 72.1 0h359.4c39.8 0 72.1 32.3 72.1 72.1v359.4c0 39.8-32.3 72.1-72.1 72.1zM72.1 3.6C34.3 3.6 3.6 34.3 3.6 72.1v359.4C3.6 469.3 34.3 500 72 500h359.5c37.8 0 68.5-30.7 68.5-68.5V72.1c0-37.8-30.7-68.5-68.5-68.5H72.1z"/><path class="st1" d="M25.2 432.6c-.1 26 20.9 47.1 46.8 47.2h359.5c26-.1 46.9-21.2 46.9-47.1V71c.1-26-20.9-47.1-46.8-47.2H72.1c-26 .1-47 21.2-46.9 47.1v361.7z"/><path class="st0" d="M323.6 150.6c19.4-2.2 29.2-21 28.3-33.9-1.4-20.7-22.6-32.3-38.7-28-39 10.3-25.3 65.9 10.4 61.9zm22.8 166.9l19.9 90.2 39.7-.2-15.8-98.5c-13.7-86.3-28.3-138.5-43.8-156.7-2.3-.3-3.8-.3-4.5 0l-8.4 3.8c-1.7.7-7.8 1.4-18.4 2.1-4.9 8.8-8.5 15.5-10.8 20l-10.5 20.3c-4.9 9.5-17.2 18.2-37 26.2-24.3 9.8-43.4 14.4-41.5 17.6 3.9 6.6 12.1 25.1 11.9 26.6l58.1-17.7c11.8-4.2 20.2 3.7 25.3 23.6 3.8 14.9-54.1 129.1-53.5 133h41.6c19.2-39 37.2-79.1 43.2-90.2l4.5-.1z"/><path class="st0" d="M188.5 403v-81.2h47.3c-1.1 0-37.1-48.8-36.9-48.9l-101.3.2c.7 0 12.8 18.1 31.3 48.7h29.8v81.1l29.8.1zm199 60.7c-13.9 0-30.2-1.4-48.4-4.3l2.7-17.5c17.4 2.7 32.8 4.1 45.7 4.1 17.5 0 26.8-2.5 31.5-4.5l8.7 15.5-1.9.9c-8.8 3.8-21.8 5.8-38.3 5.8zM308 453.6c-8.6-1.8-17.7-2.1-27.3-2.4-15.4-.5-31.4-1.1-48-7.4-2-.8-4.2-1.3-6.3-1.7l3.1-17.5c3.3.5 6.5 1.4 9.6 2.6 13.8 5.2 28.3 5.7 42.3 6.2 9.9.3 20.2.7 30.2 2.7l-3.6 17.5zm-167.2-2.2c-4.5-.3-9.1-.4-12.8-1.3-5.5-1.3-10.8-3-16-5.2l6.9-16.3c4.2 1.8 8.6 3.2 13.1 4.3 2.9.6 5.8.9 8.7.9 9.6 0 21.4-2.2 33.9-4.6 7-1.3 14.1-2.7 21-3.7l2.7 17.6c-6.7 1-13.5 2.3-20.2 3.5-13.5 2.4-26.1 4.8-37.3 4.8zm-57.4-24.6c-27.7-24.1-40.3-58-40.3-65L43 349l17.8-.2.1 13.1c.5 2.5 10.4 30.8 34.2 51.6l-11.7 13.3zm364.9-.7l-17-4.8c3-10.7 5.2-25.1 6.5-44.1.1-1.5.2-3 .2-4.6 0-7.6-1.2-16.9-3.6-29.2l17.4-3.5c2.8 13.7 4 23.8 4 32.7 0 2-.1 4-.2 5.9-1.6 20.1-4 35.7-7.3 47.6zM42.5 317.8v-8.5c0-33.9 1.6-58 5.1-75.9L49 230l7.3 5 8.9.1c-3.4 18.3-4.9 42-4.9 74.3v8.4H42.5zm385-4.8c-2.1-9.5-4.4-20.8-5.8-32-1.1-9.1-1.6-18.2-1.5-27.3 0-8.5.4-17 .9-25.5l17.7 1.1c-.5 8.1-.9 16.3-.9 24.4-.1 8.4.4 16.8 1.4 25.2 1.3 10.5 3.5 21.3 5.5 30.4l-17.3 3.7zm-352-102.1l-15.1-9.3c7.7-12.5 17.4-23.1 26-32 8.1-8.5 16-16.9 23.2-24.6l6.6-7.1 13 12.1-6.6 7.1c-7.3 7.8-15.1 16.3-23.3 24.8-8 8.3-17.1 18-23.8 29zm365.9-12.5l-17.7-1.5c1-12.1 2-24.8 2-36.2 0-5.8-.3-11.7-1-17.5-1.2-9.7-2.5-18.5-4.1-26.4l17.5-3.4c1.6 8.3 3 17.5 4.3 27.6.8 6.6 1.2 13.2 1.1 19.8-.1 12-1.1 25.1-2.1 37.6zm-291-70.4l-12.2-12.9 2.6-2.4c4.4-3.8 9-7.4 13.8-10.7 5-3.6 9.8-7 14-11.3l5.3-5.6c7.8-8.4 16.7-17.9 29.2-24.8l8.6 15.5c-10.1 5.6-17.5 13.6-24.8 21.4l-5.5 5.8c-5.2 5.4-10.9 9.5-16.3 13.4-4.3 2.9-8.3 6.1-12.2 9.5l-2.5 2.1zm261.9-38.8c-4.3-8.9-9.8-15-17.4-19.2-11.5-6.3-26.9-10.5-45.6-12.3L351 40c21.2 2.1 38.9 6.9 52.5 14.4 10.8 6 18.9 14.8 24.8 27l-16 7.8zM238.8 67l-3.9-17.3c16.2-3.7 48.7-9.9 84-10.7l.4 17.8c-33.8.6-65 6.7-80.5 10.2z"/></svg>