<svg id="Layer_1" xmlns="http://www.w3.org/2000/svg" viewBox="0 0 503.6 503.6"><style>.st0{fill:#fff}.st1{fill:#00818f}</style><path class="st0" d="M1.8 431.5c0 38.8 31.4 70.3 70.2 70.3h359.5c38.8 0 70.3-31.4 70.3-70.3V72.1c0-38.8-31.5-70.3-70.3-70.3H72.1C33.3 1.8 1.8 33.2 1.8 72.1v359.4z"/><path class="st1" d="M431.5 503.6H72c-39.7 0-72-32.3-72-72.1V72.1C0 32.3 32.3 0 72.1 0h359.4c39.8 0 72.1 32.3 72.1 72.1v359.4c0 39.8-32.3 72.1-72.1 72.1zM72.1 3.6C34.3 3.6 3.6 34.3 3.6 72.1v359.4C3.6 469.3 34.3 500 72 500h359.5c37.8 0 68.5-30.7 68.5-68.5V72.1c0-37.8-30.7-68.5-68.5-68.5H72.1z"/><path class="st1" d="M80.2 25.2h343.3c30.3 0 54.9 24.6 54.9 54.9v343.3c0 30.3-24.6 54.9-54.9 54.9H80.2c-30.3 0-54.9-24.6-54.9-54.9V80.1c0-30.3 24.5-54.9 54.9-54.9z"/><path d="M210.1 300.3h23.7v5.7h-23.7v-5.7z" fill="#2a2f79"/><path class="st0" d="M299 344.8c-1.2 2.3-2.6 4.6-4.1 6.7-17.9 23.9-42.7 23.5-61.7-2.8-10.2-14.1-22.6-18.5-38.3-19.4-14.4-.8-28.5-2.9-40.4-12.6-11.4-9.3-17.8-29.9-13.5-44.1 4.8-15.9 16.7-24.8 33.6-26.9 9.2-1.2 18-4.2 27-6.5 11.7-3 23.1-7.1 35-8.9 20.6-3.1 36.4 6.2 44.5 25 3 6.9 4.8 14.4 7.3 21.5 3.6 10.4 6.8 21 11.4 31 6.7 14.6 7.1 22.2-.8 37zM160 208.1c5.5-5.4 10.6-11.2 16.5-16.2 6.2-5.2 13.6-8.6 21.9-3.5 8 4.9 10.6 12.6 10 21.3-1.1 15-14.8 28.3-30.3 29.7-15.9 1.4-24.6-9-19.9-23.9.8-2.2 1.8-4.4 2.8-6.5l-1-.9zm143.9 6.7c-6 5.2-11.2 11.6-18.1 15.2-10.6 5.6-22.4-1.3-24-13.3-2-15.3 5.1-27.1 16.5-36.2 6.3-5 13.9-3.4 20.4 1.3 7.3 5.3 9.4 12.8 7.8 21-.7 3.6-2.6 6.9-4 10.4l1.4 1.6zM220 190.6c7.7-13.7 19.7-20.1 29.9-15.3 9.6 4.4 13.1 19.7 6.4 32.9-3.1 6-7.9 13.2-13.7 15.2-6.4 2.2-16 1.1-22.2-2.3-3.6-2-4.2-11.2-4.4-17.1-.2-4.5 2.5-9 4-13.4zm71.1 45.6c4.2-5.7 6.9-9.1 9.4-12.6 4.4-6.3 11.3-9.5 17.8-5.7 4.9 2.9 9.7 9.4 10.7 14.9 2.9 15.4-3.1 28.2-16.5 36.2-4.4 2.6-12.1 4-16.2 1.9s-7.2-9.1-7.6-14.2c-.6-7.5 1.6-15.1 2.4-20.5zm16.7 46.7c4.7-5.3 8.9-11.1 14.3-15.6 6.5-5.5 15.2-2.5 18.7 5.5 6 13.8 0 35.2-13 42.5-3.5 2-10.5 2.6-13.3.5-4.5-3.4-8.5-9.3-9.5-14.7-1-5.6 1.7-11.8 2.8-18.2zm.8-106.6l-21.4-7.8 34-32.6 3.8 2.6-16.4 37.8zm-83.5-31.9L206 182l-23-5.3 39-35 3.1 2.7zm34 24.5l-21.7-2.5c9.2-15 23.1-23.7 38.7-31.1l-17 33.6zm86.8.6c1.6 19.6-4.2 33.8-13.2 47.8l-14.3-8.1c8.6-12.5 17.2-24.8 27.5-39.7zm11.2 51.1c-2.3 14.7-4.6 29.4-7.2 45.5l-16.2-7.2 19.7-38.9 3.7.6z"/><path class="st0" d="M251.8 57.2c-107.5 0-194.6 87.1-194.6 194.6s87.1 194.6 194.6 194.6 194.6-87.1 194.6-194.6S359.3 57.2 251.8 57.2zM85.7 251.8c-.5-38.5 13-76 38-105.3l233.1 234.2c-29.6 24.3-66.7 37.5-105 37.5-91.7 0-166.1-74.7-166.1-166.4zm294.5 105.7L147.1 123.1c29.6-24.2 66.6-37.3 104.8-37.3 91.7 0 166.4 74.4 166.4 166.1-.1 38.5-13.5 75.9-38.1 105.6z"/><path class="st1" d="M251.8 446.9c-107.6 0-195.1-87.5-195.1-195.1S144.2 56.7 251.8 56.7s195.1 87.5 195.1 195.1-87.5 195.1-195.1 195.1zm0-389.2c-107 0-194.1 87.1-194.1 194.1s87.1 194.1 194.1 194.1 194.1-87.1 194.1-194.1S358.8 57.7 251.8 57.7zm0 361c-91.9 0-166.6-74.9-166.6-166.9 0-28.6 7.3-56.7 21.2-81.7 4.9-8.5 10.5-16.5 16.9-24l.4-.4.4.4 233.5 234.6-.4.4c-29.8 24.2-67 37.5-105.4 37.6zm-128-271.5c-6.1 7.3-11.6 15.1-16.4 23.4-13.9 24.8-21.1 52.7-21.1 81.2 0 91.4 74.3 165.8 165.6 165.8 38 0 74.8-13.1 104.3-37L123.8 147.2zm256.4 211l-.4-.4L146.3 123l.4-.3c29.7-24.1 66.8-37.4 105.1-37.4 92 0 166.9 74.7 166.9 166.6-.1 38.7-13.5 76.1-38.1 106l-.4.3zM147.8 123.1l232.3 233.7c24.2-29.6 37.5-66.7 37.5-105 0-91.3-74.4-165.6-165.8-165.6-37.8.1-74.5 13.1-104 36.9z"/></svg>