<svg id="Layer_1" xmlns="http://www.w3.org/2000/svg" viewBox="0 0 503.6 503.6"><style>.st1{fill:#00818f}</style><path d="M1.8 431.5c0 38.8 31.4 70.3 70.2 70.3h359.5c38.8 0 70.3-31.4 70.3-70.3V72.1c0-38.8-31.5-70.3-70.3-70.3H72.1C33.3 1.8 1.8 33.2 1.8 72.1v359.4z" fill="#fff"/><path class="st1" d="M431.5 503.6H72c-39.7 0-72-32.3-72-72.1V72.1C0 32.3 32.3 0 72.1 0h359.4c39.8 0 72.1 32.3 72.1 72.1v359.4c0 39.8-32.3 72.1-72.1 72.1zM72.1 3.6C34.3 3.6 3.6 34.3 3.6 72.1v359.4C3.6 469.3 34.3 500 72 500h359.5c37.8 0 68.5-30.7 68.5-68.5V72.1c0-37.8-30.7-68.5-68.5-68.5H72.1z"/><path class="st1" d="M25.2 431.5c0 25.9 20.9 46.8 46.8 46.9h359.5c25.9 0 46.9-21 46.9-46.8V72.1c0-25.9-21-46.9-46.9-46.9H72.1c-25.9 0-46.9 21-46.9 46.8v359.5zm93.6-59h30.3l-8-29.8h-14.5l-7.8 29.8zM64.1 433v-9.6h23.2L97.9 384H64.3v-21.4h25.8v9.6h11.1l7.4-29.8H93.3v-12h80v12h-15.4l8.2 29.8h12.3v-9.6h25.4v21.2h-34.7l10.7 39.9h139.9c4.2-12.1 6.2-24.9 6-37.7 0-13-2.1-39-9.7-74.6-43.5 35.5-68.8 44.8-87.3 48.3 17.7-21.8 35.6-59.8 40.6-121.2-10.5 4.4-21.6 7-33 7.8 17.9-23.3 33.8-61 33.8-125.3 0-16.8-1.3-33.6-2.2-50.3 14 23.3 23.3 49 37.2 72.4 22.3 37.1 51.5 65.6 71.9 78.6-2.7.2-5.4.3-8.2.3-10-.2-19.9-1.2-29.8-3 44.1 58.2 72.1 67.6 95.4 69.3-15.9 8.6-33.8 13.2-51.9 13.2-9.7 0-19.4-1.8-28.5-5.4 1.9 72.9 7.1 96.4 16.7 127.6h68.4v9.4h-375v-.1zm41.4-9.2H163L152.3 384h-36.5l-10.3 39.8z"/></svg>