<svg id="Layer_1" xmlns="http://www.w3.org/2000/svg" viewBox="0 0 503.6 503.6"><style>.st1{fill:#00818f}</style><path d="M1.8 431.5c0 38.8 31.4 70.3 70.2 70.3h359.5c38.8 0 70.3-31.4 70.3-70.3V72.1c0-38.8-31.5-70.3-70.3-70.3H72.1C33.3 1.8 1.8 33.2 1.8 72.1v359.4z" fill="#fff"/><path class="st1" d="M431.5 503.6H72c-39.7 0-72-32.3-72-72.1V72.1C0 32.3 32.3 0 72.1 0h359.4c39.8 0 72.1 32.3 72.1 72.1v359.4c0 39.8-32.3 72.1-72.1 72.1zM72.1 3.6C34.3 3.6 3.6 34.3 3.6 72.1v359.4C3.6 469.3 34.3 500 72 500h359.5c37.8 0 68.5-30.7 68.5-68.5V72.1c0-37.8-30.7-68.5-68.5-68.5H72.1z"/><path class="st1" d="M25.2 431.5c0 25.9 20.9 46.8 46.7 46.9h359.5c25.9 0 46.9-20.9 46.9-46.8V72.1c0-25.9-21-46.9-46.9-46.9H72.1c-25.9 0-46.9 20.9-46.9 46.8v359.5zm113.4-218l-73.8 14.6v-21.8l375-70V158L175 206.2v145.4h251v16.1H138.6V213.5zm95.4 61.8h97.2v8h-27.5v.4l11.5 24.1v.4h40.2v8H319v.4l13 28.4h-13.4l-11.9-28.3v-.4h-47.4L247.4 345h-14.2l13-28.3v-.4h-36.7v-8h40.6l11.1-24.5v-.4H234v-8.1zm28.3 33.5h40.2v-.4l-11.1-24.1v-.4h-12.6c-1.9-.1-3.8.6-5.3 1.8-1.1 1.8-2 3.7-2.8 5.7L268 297l-2.8 5.7-2.8 5.6-.1.5zm69.5-8.5h23.3v5.7h-23.3v-5.7zm-121.6 0H234v5.7h-23.7l-.1-5.7z"/></svg>