<svg id="Layer_1" xmlns="http://www.w3.org/2000/svg" viewBox="0 0 503.6 503.6"><style>.st1{fill:#00818f}</style><path d="M1.8 431.5c0 38.8 31.4 70.3 70.2 70.3h359.5c38.8 0 70.3-31.4 70.3-70.3V72.1c0-38.8-31.5-70.3-70.3-70.3H72.1C33.3 1.8 1.8 33.2 1.8 72.1v359.4z" fill="#fff"/><path class="st1" d="M431.5 503.6H72c-39.7 0-72-32.3-72-72.1V72.1C0 32.3 32.3 0 72.1 0h359.4c39.8 0 72.1 32.3 72.1 72.1v359.4c0 39.8-32.3 72.1-72.1 72.1zM72.1 3.6C34.3 3.6 3.6 34.3 3.6 72.1v359.4C3.6 469.3 34.3 500 72 500h359.5c37.8 0 68.5-30.7 68.5-68.5V72.1c0-37.8-30.7-68.5-68.5-68.5H72.1z"/><path class="st1" d="M25.2 431.5c0 25.9 20.9 46.8 46.7 46.9h359.5c25.9 0 46.9-20.9 46.9-46.8V72.1c0-25.9-21-46.9-46.9-46.9H72.1c-25.9 0-46.9 20.9-46.9 46.8v359.5zm357.3-325.1l-.9 5.6c-1.5 9.8-22.4 15.4-28.8 1-8.9-19.9 22-33.8 29.4-11.1 1.9-.1 3.8-.2 5.6-.5.5-2.4-1.9-3-3.4-5.4l10.7-.3-3 5.6 11.3-1.3c1.1 1.1 1.5 2 1.3 2.7-1.6 1.7-5.6 2.6-11.9 2.7l3.3 5.5h-9.7c.5-.4 1.2-2.2 2.1-5-2 .1-4 .2-6 .5zm55 109.7l-27.9-11.9c-2.9 4-6 7.9-9.5 11.4 21 17.4 32.7 27.3 34.9 29.6 12.3 12.5-1.5 24.5-11.7 18.5-.5-.3-7-5.9-19.5-16.8-.8-.7-2.1-1.8-3.9-3.3-15-12.7-22.8-19.4-23.5-20.1-4.4-5.6-3.4-11.8 3-18.6l25-27-19.8-14.3-11.9 30.6-1.8 5.1c-3.2 9.1-17 8.1-18.8-2.1-1.6-9.5 25.6-74.2 25.9-74.7 4.3-7.5 16.5-9.3 22.3-5.2 1.7 1.2 9 10.8 21.9 28.6l15.2 20.7.1 49.5zm-353 6.4c-6.1-.6-10.6-3.7-13.5-9.5-7-13.7 8-29.7 22.3-22.4 16.9 8.6 9.6 33.7-8.8 31.9zm87.6 92.2v-14.3l183.5-75.6v14.9l-183.5 75zm-63.3-47l-8.3 24.9c15 2.4 29.1 5.3 42.5 8.7 9.2 2.4 12.4 7.4 9.7 18.6-2 8.7-3.2 13.7-3.5 15.1-6.1 26.5-9.2 39.9-9.2 40.2-5 17.9-22.9 11.3-23.9.4 0-.6 10.6-47 12.6-53.4L75 311.6c-7.1-2.9-10.6-6.1-10.6-9.7v-64c0-3.6 8.1-15.2 22.8-10.4 1.8.6 65.3 43.6 65.6 43.8 12.2 9.7 3.7 22.8-6.8 20.4l-37.2-24zm141.8 145.7V311.9c0-4.9 2.4-9.2 7.3-13 13.5-10.4 29.8 1.4 29.8 13v101.5h-37.1z"/></svg>