<svg id="Layer_1" xmlns="http://www.w3.org/2000/svg" viewBox="0 0 503.6 503.6"><style>.st0{fill:#fff}.st1{fill:#00818f}</style><path class="st0" d="M1.8 431.5c0 38.8 31.4 70.3 70.2 70.3h359.5c38.8 0 70.3-31.4 70.3-70.3V72.1c0-38.8-31.5-70.3-70.3-70.3H72.1C33.3 1.8 1.8 33.2 1.8 72.1v359.4z"/><path class="st1" d="M431.5 503.6H72c-39.7 0-72-32.3-72-72.1V72.1C0 32.3 32.3 0 72.1 0h359.4c39.8 0 72.1 32.3 72.1 72.1v359.4c0 39.8-32.3 72.1-72.1 72.1zM72.1 3.6C34.3 3.6 3.6 34.3 3.6 72.1v359.4C3.6 469.3 34.3 500 72 500h359.5c37.8 0 68.5-30.7 68.5-68.5V72.1c0-37.8-30.7-68.5-68.5-68.5H72.1z"/><path class="st1" d="M25.2 431.5c0 25.9 20.9 46.8 46.8 46.9h359.5c25.9 0 46.9-21 46.9-46.8V72.1c0-25.9-21-46.9-46.9-46.9H72.1c-25.9 0-46.9 21-46.9 46.8v359.5z"/><path class="st0" d="M260.1 196.4l3.2-1.1c2.6-.9 4.7-.8 6.3.4 1.3 1 2.8 1.9 4.3 2.6l1.9-1.4c4.9-3.7 10.4-3 16.5 2l5 4.1c1.2 1 13.9-2.6 16-12 .8.1 1.6.5 2.2 1.1l.8 1 1.6.2c.8-1.5 2-2.8 3.4-3.8.7.2 2 1.1 3.8 2.9.7-.5 1.7-2.3 2.9-5.2.4-1 .9-1.9 1.5-2.8 4.4.7 7.4-1.3 8.9-6-1.4-2.9-2.3-4.6-2.8-5 .7-.8 1.5-1.5 2.4-2.2l.2-3.7c0-.5-.6-1.5-1.8-3-1-1.1-1.5-2.4-1.5-3.9 1.6-.8 2.7-1.2 3.2-1.1.4-1.1-.1-2.2-1.4-3.5-1.6-1.5-2.1-2.9-1.4-4.4 1.1-2.2 1.6-3.7 1.5-4.4-6.1-2.1-8.7-6.4-8-12.8-5.2-1-9.7-4.1-12.5-8.6-.9-.2-3.9.6-9 2.3-.6-.6-2.4-1.2-5.3-2l-1.9 14.4-6.9.1.1 4.8-.5.7v2.4c-3.7-.3-6.7 1.3-8.9 4.9-.3.1-4.5-.6-12.8-1.9-.3 7.1-3.1 10.3-8.6 9.7l-.1 8c-.4.3-3.7 2.2-9.7 5.7.8 1.1 1.8 1.9 3.1 2.4l1.8.9c.5.3-.5 2.8-3.1 7.8 3.7 1.2 5.6 3.9 5.7 8.1l-.1 2.3zM238.9 78.9c-.9.1-16.2 6.4-45.7 19l-7.6 3.2c-3.4 1.4-4.9 3.9-4.6 7.5.1.7 2.1 5.2 6.1 13.7-11 4.6-21.3 8.9-30.9 13-7.1 3-12.2 5.2-15.5 6.5-11.7 4.8-18.9 8.8-21.6 12-1 3.7-1.1 6.5-.3 8.3l3.3 7.4 6.6 14.7h2.7l205-88v-1c0-.2-2.3-5.2-6.8-15-4.9-10.6-9.7-14.8-14.4-12.8l-62.7 27.1c-3.7-10.7-8.3-16-13.6-15.6zm-36.2 357.4l127.4.4c6.8 0 10.6-6.3 11.5-18.8 2.2-30.9 4.4-58.2 6.6-81.9.2-2.4.5-5.1.7-8.2 4-50.7 6.4-78 7-81.8l9-.4 1.1-.7c.1-.6.2-1 .2-1.3l.2-1.3-.5-29.7c0-.8-.4-1.6-1.1-2.1l-215.5 2.2c-.5-.1-1 .3-1.1.8v.3l.6 34 11.1-.2c.7 4 3 20.1 6.9 48.3 9.6 69.2 15.3 109.4 17 120.8 1.9 13.3 5.4 19.9 10.3 19.8l8.6-.2z"/><path class="st1" d="M262 357.7l17.5-30.7-.1 13.9 23-.1-18.8-32.6 29.4-17 11.4 19.9c3 5.3 3.9 9.6 3.9 12.8.1 3.7-.9 7.4-2.7 10.6l-19.2 33c-2.9 5-6.4 7.2-13.3 7.2l-13.5-.2-.1 13.7-17.5-30.5zm-45.7-17.4h37.6v34H231c-10.5 0-17.4-4.5-20.9-10.6l-19-33.1c-1.4-2.1-2.1-4.6-2.1-7.1.2-2.8 1-5.6 2.6-8l7-11.6-11.8-7 35.2.1 17.7 30.5-12-7-11.4 19.8zm23.1-42.7l-29.1-17.5 11.8-19.6c5.2-8.9 12.7-12.6 19.8-12.4l38.1.8c5.8.1 9.4 2.2 12.7 8.2l6.4 11.9 12.1-6.5-18.2 30.2-35.2-.5 12.2-6.7-11.3-20.1-19.3 32.2zm-40.8-180.2c-.2 0-4.7-6.8-2-7.9l39.2-17.1h1.6c1.1 0 4.5 6.1 2.8 6.8l-41.1 18.2h-.5z"/></svg>