<svg id="Layer_1" xmlns="http://www.w3.org/2000/svg" viewBox="0 0 503.6 503.6"><style>.st1{fill:#00818f}</style><path d="M1.8 431.5c0 38.8 31.4 70.3 70.2 70.3h359.5c38.8 0 70.3-31.4 70.3-70.3V72.1c0-38.8-31.5-70.3-70.3-70.3H72.1C33.3 1.8 1.8 33.2 1.8 72.1v359.4z" fill="#fff"/><path class="st1" d="M431.5 503.6H72c-39.7 0-72-32.3-72-72.1V72.1C0 32.3 32.3 0 72.1 0h359.4c39.8 0 72.1 32.3 72.1 72.1v359.4c0 39.8-32.3 72.1-72.1 72.1zM72.1 3.6C34.3 3.6 3.6 34.3 3.6 72.1v359.4C3.6 469.3 34.3 500 72 500h359.5c37.8 0 68.5-30.7 68.5-68.5V72.1c0-37.8-30.7-68.5-68.5-68.5H72.1z"/><path class="st1" d="M25.2 431.5c0 25.9 20.9 46.8 46.8 46.9h359.5c25.9 0 46.9-21 46.9-46.8V72.1c0-25.9-21-46.9-46.9-46.9H72.1c-25.9 0-46.9 21-46.9 46.8v359.5zM383 282.9v139.5c0 9.2-9.2 17.3-18.2 16.9-7.8-.4-16.2-7.9-16.7-18.4V189.6H341V270c0 6.8-6.2 13.5-13.8 13.5-7.2 0-13.4-6.2-13.4-12.6v-99.2c0-22.2 16.6-37.5 36.2-37.5h71.6c20.2 0 37.3 17.1 37.3 37.3v97.9c0 9-6 14.2-13.4 14.2-7.4.2-13.6-5.7-13.8-13.1v-80.9H425v232.7c0 9.1-8.4 16.9-17.2 16.9-9.6 0-17.5-8.6-17.5-16.7V282.9H383zM355.4 95.2c.3-17.1 14.4-30.7 31.5-30.4s30.7 14.4 30.4 31.5c-.3 17-14.3 30.6-31.3 30.4-16.5 0-30.6-13.5-30.6-31.5zm-113 344.1v-375h35.8v375h-35.8zm-183-120l41.2-142.1h-7.5L69 258.8c-1.4 5.4-6.4 9.2-12 9.2-6.7.1-12.3-5.2-12.4-12 0-1.3.2-2.6.5-3.8l26.4-92.1c4-14.1 19.6-25.9 35.4-25.9h50.4c13.5 0 29.7 11.9 33.6 25.3l27 91.5c2.2 6.8-1.6 14.2-8.4 16.3-1.2.4-2.5.6-3.8.6-5.5 0-10.1-3-12.1-10.2L170 177.2h-8l41.4 141.9h-38.9v106.1c0 8.1-6.1 14.1-14.2 14.1-8 .2-14.6-6.1-14.8-14V319.1h-6.9v105.6c.1 8-6.3 14.5-14.2 14.6h-.5c-8.2 0-14.8-6.9-14.8-13.7V319.3H59.4zm41-224.1c.2-17 14.2-30.7 31.2-30.5s30.7 14.2 30.5 31.2c-.2 16.9-13.9 30.5-30.8 30.5-17 .1-30.9-13.6-31-30.6.1-.2.1-.4.1-.6z"/></svg>