<svg id="Layer_1" xmlns="http://www.w3.org/2000/svg" viewBox="0 0 503.6 503.6"><style>.st1{fill:#00818f}</style><path d="M1.8 431.5c0 38.8 31.4 70.3 70.2 70.3h359.5c38.8 0 70.3-31.4 70.3-70.3V72.1c0-38.8-31.5-70.3-70.3-70.3H72.1C33.3 1.8 1.8 33.2 1.8 72.1v359.4z" fill="#fff"/><path class="st1" d="M431.5 503.6H72c-39.7 0-72-32.3-72-72.1V72.1C0 32.3 32.3 0 72.1 0h359.4c39.8 0 72.1 32.3 72.1 72.1v359.4c0 39.8-32.3 72.1-72.1 72.1zM72.1 3.6C34.3 3.6 3.6 34.3 3.6 72.1v359.4C3.6 469.3 34.3 500 72 500h359.5c37.8 0 68.5-30.7 68.5-68.5V72.1c0-37.8-30.7-68.5-68.5-68.5H72.1z"/><path class="st1" d="M25.2 431.5c0 25.9 20.9 46.8 46.8 46.9h359.5c25.9 0 46.9-20.9 46.9-46.8V72.1c0-25.9-21-46.9-46.9-46.9H72.1c-25.9 0-46.9 20.9-46.9 46.8v359.5zm356.9-331.1c1.5-1.2 3.4-2.7 5.5-4.4 3.5-2.7 6.4-5 8.5-6.9h-2.6c-1.9 1.5-4.1 3.4-6.7 5.4-3.1 2.4-5.6 4.4-7.3 5.9h2.6zm22.1-17.5c1.1-.7 2.4-1.5 3.9-2.5 2.5-1.5 4.5-2.8 6-3.9l-1.7-.2c-1.3.9-2.9 1.9-4.7 3-2.2 1.4-3.9 2.5-5.1 3.3l1.6.3zm14.4-8.6c.8-.7 1.8-1.5 3-2.4 1.9-1.5 3.5-2.7 4.6-3.8h-1.4c-1 .8-2.2 1.8-3.7 3-1.7 1.3-3.1 2.4-4 3.2h1.5zM357.2 122c1.5-1.2 3.4-2.7 5.5-4.4 3.5-2.7 6.4-5 8.5-6.9h-2.6c-1.9 1.6-4.1 3.4-6.7 5.4-3.1 2.4-5.6 4.4-7.3 5.9h2.6zm-10.6 17.6c-.6 1.9-1.1 3.7-1.6 5.6-1 4-1.7 8-2 12.1l2-.3c.3-3.6 1-7.2 1.9-10.7.6-2.3 1.4-4.7 2.1-7l-2.4.3zm13.3 68.5c-.6-7.7-2.2-15.2-4.9-22.4-.1-.4-.1-.6-.2-.9l-3-1.1c.2 1.1.6 2.2 1 3.3 2.3 6.5 3.9 13.3 4.5 20.2l2.6.9zm-26.6 51.5c6.8-5 13.1-10.6 18.9-16.9 1.2-1.3 2.3-2.8 3.2-4.4h-4c-.7.8-1.2 1.5-1.7 2.2-5.2 5.9-12.5 12.3-22.1 19l5.7.1zm-55.7 33.7c-9.9 7.2-19.4 14.3-28.1 21.2h5.4c8.9-6.9 18.5-14 28.6-21.2h-5.9zm-67.9 54.9c-7.6 6.9-15.2 13.8-22.9 21.2h4.9c7.8-7.4 15.3-14.5 23.1-21.2h-5.1zm-53.9 55.1c-1.5 2-2.9 4-4.2 5.9-3.4 5-6.6 10.1-9.4 15.3h3.9c2.5-4.6 5.4-9 8.4-13.3 1.7-2.7 3.5-5.2 5.6-7.9h-4.3zm216.6-141.5c-8.1 7.5-16.5 14.5-24.7 21.7-48.9 42.7-100.9 87.6-101.5 153.3-31.7.7-95.3 2.1-119.6 2.1H57.4c3.9-11.2 8.7-22.1 14.4-32.6 13.5-24.4 31.5-44.5 54.8-62.2 50.8-38.5 89.6-62.6 144.1-89.7 54.2-24.4 67.2-45.9 45-81.3-1.6-2.5-2.8-5.1-3.6-7.9-7.5-25.5 16.3-50.7 35.3-64.1 19.6-13.6 42.7-22 64-34.4 1.1-.6 2.3-1.3 3.4-2l31.9-.1c-.9.7-1.9 1.5-2.9 2.2-21.1 15-37 22.9-56.3 41.7-3.5 3.4-7 6.8-10.4 10.3-15.6 16.4-22.4 29.6-3.1 46.5 6.4 5.6 13.6 11.4 17.4 19.8 14.3 32 5.9 53.7-19 76.7z"/></svg>