<svg id="Layer_1" xmlns="http://www.w3.org/2000/svg" viewBox="0 0 503.6 503.6"><style>.st1{fill:#00818f}</style><path d="M1.8 431.5c0 38.8 31.4 70.3 70.2 70.3h359.5c38.8 0 70.3-31.4 70.3-70.3V72.1c0-38.8-31.5-70.3-70.3-70.3H72.1C33.3 1.8 1.8 33.2 1.8 72.1v359.4z" fill="#fff"/><path class="st1" d="M431.5 503.6H72c-39.7 0-72-32.3-72-72.1V72.1C0 32.3 32.3 0 72.1 0h359.4c39.8 0 72.1 32.3 72.1 72.1v359.4c0 39.8-32.3 72.1-72.1 72.1zM72.1 3.6C34.3 3.6 3.6 34.3 3.6 72.1v359.4C3.6 469.3 34.3 500 72 500h359.5c37.8 0 68.5-30.7 68.5-68.5V72.1c0-37.8-30.7-68.5-68.5-68.5H72.1z"/><path class="st1" d="M25.2 431.5c0 25.9 20.9 46.8 46.8 46.9h359.5c25.9 0 46.9-21 46.9-46.8V72.1c0-25.9-21-46.9-46.9-46.9H72.1c-25.9 0-46.9 21-46.9 46.8v359.5zm361.7-64L338 327.7l101.3-7.8-52.4 47.6zm-40.3-176.4c21.4 0 38.8 17.3 38.8 38.7s-17.3 38.8-38.7 38.8c-21.4 0-38.8-17.3-38.8-38.7s17.4-38.7 38.7-38.8zm80.8 118.4l2.8 2.9c-3.1 25.2-36.4 28-44.8 4-7.3 24-38.1 25-47 1.5-9.9 21.3-37.1 21.9-47.8.9-10 22-38.8 22.6-49 .5-9.8 21.1-37.8 20.8-48.6.7-8.8 21.9-37.6 20.9-45.2-1.4-8.6 23-39.4 21.9-47.9-.7-5.1 14.2-18.6 20.3-32.6 14.4l.2-14.8c9.8 2.4 23.3 4 32.7-13.8 11.4 19.1 35.6 19.3 48.1 1.4 10.9 18.9 36.9 18 46.6-1.5 11.4 19.4 36.6 19.7 49.3 1.5 13.5 16.3 35.9 15.6 47.6-2.3 9.5 20.5 37.3 19 46.8-.8 12 18.1 36.4 17.7 47.5-1 11.2 18.7 33.5 16.9 41.3 8.5zM216.7 136.3L330 291.6c-11.4 15.9-33.4 14.2-40.2-4.8-8.3 23.9-40.4 23.8-46.5-1-8.5 25.1-38.5 25.1-48.4 1.1-8.5 23.8-39 22.9-48-.2-8.2 23-37.9 22.5-46.5 0-9.9 21.9-25.2 18.9-36.1 13.9l167.2-82.3-27.6-38.1-89.9 27.7-6.6-17 109.3-54.6z"/></svg>