<svg id="Layer_1" data-name="Layer 1" xmlns="http://www.w3.org/2000/svg" viewBox="0 0 503.6 503.6"><defs><style>.cls-4{fill:#fff;fill-rule:evenodd}</style></defs><path d="M1.8 431.5A70.25 70.25 0 0 0 72 501.8h359.5a70.27 70.27 0 0 0 70.3-70.3V72.1a70.33 70.33 0 0 0-70.3-70.3H72.1A70.27 70.27 0 0 0 1.8 72.1z" fill="#fff"/><path d="M431.5 503.6H72a72.1 72.1 0 0 1-72-72.1V72.1A72.13 72.13 0 0 1 72.1 0h359.4a72.13 72.13 0 0 1 72.1 72.1v359.4a72.13 72.13 0 0 1-72.1 72.1zM72.1 3.6A68.54 68.54 0 0 0 3.6 72.1v359.4A68.52 68.52 0 0 0 72 500h359.5a68.54 68.54 0 0 0 68.5-68.5V72.1a68.54 68.54 0 0 0-68.5-68.5z" fill="#00818f"/><path d="M25.11 431.52A46.82 46.82 0 0 0 72 478.4h359.59a46.86 46.86 0 0 0 46.9-46.88V72.08a46.9 46.9 0 0 0-46.9-46.88H72a46.86 46.86 0 0 0-46.9 46.88z" fill-rule="evenodd" fill="#00818f"/><path class="cls-4" d="M154.92 76.55a43.13 43.13 0 1 1-43.22 43.26 43.35 43.35 0 0 1 43.22-43.26zM299.56 222.51a29.16 29.16 0 1 1-29.2 29.13 29.16 29.16 0 0 1 29.2-29.13zM258.85 424.79h73v-90.45c.19-14.45 1.93-17.07 23-16.44h61.48v-29.13H281.87c-12.45 1.18-23.2 8.31-23 22.57z"/><path class="cls-4" d="M87.88 426.73h120.63V235.82c-1.19-10.12 1.37-17.06 16.82-17.69h28.21c14.45.44 18-5.93 19.19-15.25v-71.77h10.95l-.19 3.95 9.32-.19v-34.13h-10.32v4.81h-10.94v-9.76h-37.28v13.51h-29.58v19h29.58v27.18c-.55 14.69-4.75 19.63-20.45 19.45H125c-21.2.37-36.7 11.68-37.08 30.5z"/></svg>