<svg id="Layer_1" xmlns="http://www.w3.org/2000/svg" viewBox="0 0 503.6 503.6"><style>.st1{fill:#00818f}</style><path d="M1.8 431.5c0 38.8 31.4 70.3 70.2 70.3h359.5c38.8 0 70.3-31.4 70.3-70.3V72.1c0-38.8-31.5-70.3-70.3-70.3H72.1C33.3 1.8 1.8 33.2 1.8 72.1v359.4z" fill="#fff"/><path class="st1" d="M431.5 503.6H72c-39.7 0-72-32.3-72-72.1V72.1C0 32.3 32.3 0 72.1 0h359.4c39.8 0 72.1 32.3 72.1 72.1v359.4c0 39.8-32.3 72.1-72.1 72.1zM72.1 3.6C34.3 3.6 3.6 34.3 3.6 72.1v359.4C3.6 469.3 34.3 500 72 500h359.5c37.8 0 68.5-30.7 68.5-68.5V72.1c0-37.8-30.7-68.5-68.5-68.5H72.1z"/><path class="st1" d="M355.7 346.9c4.7.8 34.5.1 47.4-8.8 38.4-26.2 33.1-87.4-11.3-104.6-45.5-17.6-75.8 15.8-82.8 36.8-12.2 37.1 15.3 71.2 46.7 76.6zm-330.5 85c0 25.9 20.9 46.8 46.7 46.9h359.5c25.9 0 46.9-20.9 46.9-46.8V72.5c0-25.9-21-46.9-46.9-46.9H72.1c-25.9 0-46.9 21-46.9 46.8v359.5zm330.6-75.1c-33.1-4-57.9-36.8-58.3-60.4 0-3.4-.3-6.9-.8-10.3-1.5-2.2-9.8-2.6-18.5-2.6-9.1-18.9-14.8-33.2-14.3-37.9.7-5.7.6-11.4-.3-17.1-.5-3.1-8.3-2.4-20.7-1.4l-1.1 20.3-9.8 35.2-15.9 4.1c-.6.5-2.1 4.3-4.4 11.2-5.9 18.2-14 32.2-24.2 41.8-10.1 9.5-25.9 15.1-45 15.8h-9.6c-19.9.7-37.6-8.5-53.8-27.3l-8-13.8-3.9-11.2c-7.9-11.5-1.8-82.3 53.4-88.4l.4-13 82.8-51 12.9-3.6 11.1 5.4 8.9 7.1c6.7 5.3 14.7 4.2 24.2-3.4l9.8-7.8C287.2 135.6 365 195 380.5 207l1.6 12.6c39.9 12.6 58.9 38.3 57 77.1-1 21.2-20.5 67.7-83.3 60.1zm-174.1-185l13.8-.4c2.1-.1 4.5 1.9 7.2 6l4.6 8.1c4.7 8.1 8 9.5 10 4.2 1.1-3-1.7-8.5-8.5-16.6-4.1-4.9-7.8-7.9-11.1-9-3.8-1.3-6.1-1.5-7.1-.7l-2.6 2.2-3.2 1.5-3.1 1.4v3.3zm108.5 18.6l1.6-.4 2.8-4.1c.6-.9 12.4-10.1 15.8-11v-2.4c0-.9-1.1-1.7-3.2-2.4-7.7-2.6-22.5 14.7-17.5 19.8l.5.5zm-29 1.6c0-1.7-15.3-6.9-22 .2-5.6 5.9-6.2 18.4-2.3 17.7l2.4-.4c.3-.1 1.2-1.8 2.7-5.2l2-5.6c.5-1.4 6.2-6.3 11.9-2.4 1.3.9 1.9 1.6 2 2.2h1.6c.8.1 1.5-.4 1.6-1.2v-.4l.1-4.9zm-74.5 31.6c4.1.1 5.7-1.8 4.9-5.7-.7-3.3-6.3-6.8-16.9-10.5-9.8-3.4-42.5-7.2-31.8 4.6.7.8 2.5.8 5.3.1 6.7-1.9 16.5.4 29.4 6.9l9.1 4.6zm71.9-10.4H257l-2.7 1.7-3 1.1c-1.6.6-2.4 1.3-2.4 2v2.4c0 4.7 15.9 1.3 17.8-7.3 1.6-7-9.1-4.4-8.1.1zm64.4 16.4l7.5 1.7 14.1-7.4 16-4.5v-4.1l-13.6 2.2-7.3 2.9-16.7 9.2zm-194.6 115c36.4 4.1 69.6-24.2 71.2-50.4l2.4-12.9c0-1.8-4.1-23.5-14.5-34.9-19.9-21.6-43.4-28.5-70.5-20.7-24.1 6.9-43.9 35.4-42.8 60.4 1 22.5 20.1 54.6 54.2 58.5z"/></svg>