<svg id="Layer_1" xmlns="http://www.w3.org/2000/svg" viewBox="0 0 503.6 503.6"><style>.st1{fill:#00818f}</style><path d="M1.8 431.5c0 38.8 31.4 70.3 70.2 70.3h359.5c38.8 0 70.3-31.4 70.3-70.3V72.1c0-38.8-31.5-70.3-70.3-70.3H72.1C33.3 1.8 1.8 33.2 1.8 72.1v359.4z" fill="#fff"/><path class="st1" d="M431.5 503.6H72c-39.7 0-72-32.3-72-72.1V72.1C0 32.3 32.3 0 72.1 0h359.4c39.8 0 72.1 32.3 72.1 72.1v359.4c0 39.8-32.3 72.1-72.1 72.1zM72.1 3.6C34.3 3.6 3.6 34.3 3.6 72.1v359.4C3.6 469.3 34.3 500 72 500h359.5c37.8 0 68.5-30.7 68.5-68.5V72.1c0-37.8-30.7-68.5-68.5-68.5H72.1z"/><path class="st1" d="M25.2 431.5c0 25.9 20.9 46.8 46.7 46.9h359.5c25.9 0 46.9-20.9 46.9-46.8V72.1c0-25.9-21-46.9-46.9-46.9H72.1c-25.9 0-46.9 20.9-46.9 46.8v359.5zM91 306.7l36.7-34.4-15 69.1L91 306.7zm119.7 44.6h-49l-28.8-87.9L87.3 307l27.3 44.2H59.2l30.4-103.5H178l32.7 103.6zm-76.2-139.5l42.2 32.2-85.3.1 43.1-32.3zm94.1-56.6l36.7-34.4-15 69.1-21.7-34.7zm120.5 44.7h-49l-28.8-87.8-45.6 43.5 27.3 44.2h-55.4L228 96.3h88.4l32.7 103.6zM272.8 60.3L315 92.5l-85.4.2 43.2-32.4zm-4.9 296l43.8-40.9-17.9 82.2-25.9-41.3zm143 52h-58.3l-34.3-104.6-54.3 51.8 32.5 52.6h-66l36.2-123.2H372l38.9 123.4zm-90.7-164.9l50.3 38.3-101.6.2 51.3-38.5z"/></svg>