<svg id="Layer_1" xmlns="http://www.w3.org/2000/svg" viewBox="0 0 503.6 503.6"><style>.st0{fill:#fff}.st1{fill:#00818f}</style><path class="st0" d="M1.8 431.5c0 38.8 31.4 70.3 70.2 70.3h359.5c38.8 0 70.3-31.4 70.3-70.3V72.1c0-38.8-31.5-70.3-70.3-70.3H72.1C33.3 1.8 1.8 33.2 1.8 72.1v359.4z"/><path class="st1" d="M431.5 503.6H72c-39.7 0-72-32.3-72-72.1V72.1C0 32.3 32.3 0 72.1 0h359.4c39.8 0 72.1 32.3 72.1 72.1v359.4c0 39.8-32.3 72.1-72.1 72.1zM72.1 3.6C34.3 3.6 3.6 34.3 3.6 72.1v359.4C3.6 469.3 34.3 500 72 500h359.5c37.8 0 68.5-30.7 68.5-68.5V72.1c0-37.8-30.7-68.5-68.5-68.5H72.1z"/><path class="st1" d="M80.2 25.2h343.3c30.3 0 54.9 24.6 54.9 54.9v343.3c0 30.3-24.6 54.9-54.9 54.9H80.2c-30.3 0-54.9-24.6-54.9-54.9V80.1c-.1-30.3 24.5-54.9 54.9-54.9z"/><path class="st0" d="M374.6 438.4H217.7l-33.2-187.1h27.2l9 51.1c3.1 2.6 8.3 6.7 11.8 6.6 7.8.1 12.7-3.2 18.4-7 5.7-3.8 12.3-8.2 21.5-8 12.7-.2 20.6 5.6 27 10.4 4.9 3.7 8.8 6.6 14.1 6.7 7.2-.1 11.5-2.8 17-6.2 6.6-4.1 14.1-8.8 27.2-8.8 5.3.2 10.5 1.4 15.2 3.7l8.9-48.4h27.1m-244.5-71.5H94.9v-49.3h86.5v-25.2h-10.1c-13.1 0-23.8-8.9-24.1-20.1.4-11 11-19.9 24.1-20.1h53.3c12.9.2 23.6 9.2 23.1 20.1.4 11.2-10.2 20.2-23.1 20.1h-10.1v25.2h37.2c47.1.3 85.2 38.4 85.5 85.5v33.2H288v-32.2c0-20.4-16.5-36.9-37.2-37.2H232c-4 15.1-17.6 22.8-33.7 22.8-16.5 0-30.2-7.7-33.9-22.8"/><path class="st1" d="M336.9 315.5c-6 3.7-12.7 7.9-23.6 8.1-9.5-.2-15.9-4.9-21.5-9.1s-10.8-8-19.5-7.9c-5.5-.1-9.4 2.5-14.5 5.9-6.2 4.1-13.8 9.2-25.3 9.1-3.1 0-6.1-.8-8.8-2.1l17.1 96.8h110.6l19-103.7c-4.1-2.4-8.7-4-12.9-4.1-9.5.1-14.6 3.3-20.6 7"/></svg>