<svg id="Layer_1" xmlns="http://www.w3.org/2000/svg" viewBox="0 0 503.6 503.6"><style>.st1{fill:#00818f}</style><path d="M1.8 431.5c0 38.8 31.4 70.3 70.2 70.3h359.5c38.8 0 70.3-31.4 70.3-70.3V72.1c0-38.8-31.5-70.3-70.3-70.3H72.1C33.3 1.8 1.8 33.2 1.8 72.1v359.4z" fill="#fff"/><path class="st1" d="M431.5 503.6H72c-39.7 0-72-32.3-72-72.1V72.1C0 32.3 32.3 0 72.1 0h359.4c39.8 0 72.1 32.3 72.1 72.1v359.4c0 39.8-32.3 72.1-72.1 72.1zM72.1 3.6C34.3 3.6 3.6 34.3 3.6 72.1v359.4C3.6 469.3 34.3 500 72 500h359.5c37.8 0 68.5-30.7 68.5-68.5V72.1c0-37.8-30.7-68.5-68.5-68.5H72.1z"/><path class="st1" d="M25.2 431.5c0 25.9 20.9 46.8 46.8 46.9h359.5c25.9 0 46.9-21 46.9-46.8V72.1c0-25.9-21-46.9-46.9-46.9H72.1c-25.9 0-46.9 21-46.9 46.8v359.5zm128.6-194.8c-26.5 18.5-42.3 48.7-42.5 81 0 52.6 44.2 96.8 97.3 96.8 46.7 0 86.7-33.6 95.3-78.6l13.9 35c-20.4 41.8-62.7 68.3-109.2 68.4-66.8 0-121.8-55.1-121.8-122 0-44.3 26-86.9 64.7-107.6l2.3 27zm20.3 46.7L159.3 109c-2.3-4.4-3.5-9.2-3.5-14.2 0-17.6 13.4-30.5 30.8-30.5 15.7 0 29.7 13.8 29.7 30.4 0 15.6-12.4 29-27.8 30l6.8 74.9h88v27.5h-86l2.4 28.5h120.5L362.9 367l43.8-16.7 10.1 25.5-69.8 27.3-46.1-119.7H174.1z"/></svg>